<svg xmlns="http://www.w3.org/2000/svg" xmlns:xlink="http://www.w3.org/1999/xlink" width="1080" zoomAndPan="magnify" viewBox="0 0 810 809.999993" height="1080" preserveAspectRatio="xMidYMid meet" version="1.0"><defs><filter x="0%" y="0%" width="100%" height="100%" id="7eb2fffc3d"><feColorMatrix values="0 0 0 0 1 0 0 0 0 1 0 0 0 0 1 0 0 0 1 0" color-interpolation-filters="sRGB"/></filter><mask id="d17ad9689f"><g filter="url(#7eb2fffc3d)"><rect x="-81" width="972" fill="#000000" y="-80.999999" height="971.999992" fill-opacity="0.298"/></g></mask><clipPath id="5ae451170d"><path d="M 0 15 L 751 15 L 751 810 L 0 810 Z M 0 15 " clip-rule="nonzero"/></clipPath><clipPath id="03bb3c9157"><path d="M -193.636719 695.152344 L 462.253906 -89.390625 L 854.523438 238.554688 L 198.632812 1023.097656 Z M -193.636719 695.152344 " clip-rule="nonzero"/></clipPath><clipPath id="716f626ceb"><path d="M 298.28125 106.746094 C 388.839844 -1.578125 550.066406 -15.976562 658.386719 74.582031 C 766.710938 165.140625 781.109375 326.367188 690.550781 434.691406 L 362.605469 826.960938 C 272.046875 935.285156 110.820312 949.683594 2.5 859.125 C -105.824219 768.566406 -120.222656 607.339844 -29.664062 499.015625 L 298.28125 106.746094 " clip-rule="nonzero"/></clipPath><clipPath id="764179452b"><rect x="0" width="810" y="0" height="810"/></clipPath><clipPath id="8502c11901"><path d="M 291.3125 311.378906 L 309.851562 311.378906 L 309.851562 369.582031 L 291.3125 369.582031 Z M 291.3125 311.378906 " clip-rule="nonzero"/></clipPath><clipPath id="64a7ba9c7e"><path d="M 235 180 L 555 180 L 555 314 L 235 314 Z M 235 180 " clip-rule="nonzero"/></clipPath><clipPath id="fe34dcbeed"><path d="M 238.382812 180.597656 L 235.460938 183.519531 L 235.460938 313.507812 L 554.492188 313.507812 L 554.492188 183.519531 L 551.574219 180.597656 Z M 238.382812 180.597656 " clip-rule="nonzero"/></clipPath><clipPath id="4e7e95585e"><path d="M 235 153.757812 L 555 153.757812 L 555 184 L 235 184 Z M 235 153.757812 " clip-rule="nonzero"/></clipPath><clipPath id="08b32150a2"><path d="M 387.191406 283.125 L 485.378906 283.125 L 485.378906 289.179688 L 387.191406 289.179688 Z M 387.191406 283.125 " clip-rule="nonzero"/></clipPath><clipPath id="b839d2a8ea"><path d="M 387.0625 206.585938 L 530.816406 206.585938 L 530.816406 212.644531 L 387.0625 212.644531 Z M 387.0625 206.585938 " clip-rule="nonzero"/></clipPath><clipPath id="ad25e83e6e"><path d="M 387.0625 271.527344 L 530.816406 271.527344 L 530.816406 277.582031 L 387.0625 277.582031 Z M 387.0625 271.527344 " clip-rule="nonzero"/></clipPath><clipPath id="94be990a0a"><path d="M 387.191406 229.78125 L 485.378906 229.78125 L 485.378906 235.835938 L 387.191406 235.835938 Z M 387.191406 229.78125 " clip-rule="nonzero"/></clipPath><clipPath id="6963367761"><path d="M 387.0625 259.929688 L 530.816406 259.929688 L 530.816406 265.988281 L 387.0625 265.988281 Z M 387.0625 259.929688 " clip-rule="nonzero"/></clipPath><clipPath id="85e6ab404f"><path d="M 387.0625 218.183594 L 530.816406 218.183594 L 530.816406 224.238281 L 387.0625 224.238281 Z M 387.0625 218.183594 " clip-rule="nonzero"/></clipPath><clipPath id="c440bf8aac"><path d="M 258.628906 197.4375 L 364.671875 197.4375 L 364.671875 296.652344 L 258.628906 296.652344 Z M 258.628906 197.4375 " clip-rule="nonzero"/></clipPath><clipPath id="19b40165b0"><path d="M 131 325 L 294 325 L 294 530.257812 L 131 530.257812 Z M 131 325 " clip-rule="nonzero"/></clipPath><clipPath id="4cb942f47d"><path d="M 134.140625 325.722656 L 131.222656 329.378906 L 131.222656 530.128906 L 293.503906 530.128906 L 293.503906 329.378906 L 290.582031 325.722656 Z M 134.140625 325.722656 " clip-rule="nonzero"/></clipPath><clipPath id="7b0fe967c8"><path d="M 182.183594 433.238281 L 242.539062 433.238281 L 242.539062 439.292969 L 182.183594 439.292969 Z M 182.183594 433.238281 " clip-rule="nonzero"/></clipPath><clipPath id="b3607bc149"><path d="M 182.183594 421.640625 L 242.539062 421.640625 L 242.539062 427.695312 L 182.183594 427.695312 Z M 182.183594 421.640625 " clip-rule="nonzero"/></clipPath><clipPath id="cb7cf4c726"><path d="M 182.183594 410.042969 L 242.539062 410.042969 L 242.539062 416.097656 L 182.183594 416.097656 Z M 182.183594 410.042969 " clip-rule="nonzero"/></clipPath><clipPath id="283c4b2703"><path d="M 307 325 L 627 325 L 627 530.257812 L 307 530.257812 Z M 307 325 " clip-rule="nonzero"/></clipPath><clipPath id="e547fa1fc9"><path d="M 310.582031 325.722656 L 307.660156 329.378906 L 307.660156 530.128906 L 626.691406 530.128906 L 626.691406 329.378906 L 623.773438 325.722656 Z M 310.582031 325.722656 " clip-rule="nonzero"/></clipPath><clipPath id="84c04a5653"><path d="M 523.992188 430.914062 L 584.347656 430.914062 L 584.347656 436.972656 L 523.992188 436.972656 Z M 523.992188 430.914062 " clip-rule="nonzero"/></clipPath><clipPath id="674210da8e"><path d="M 442.917969 442.511719 L 503.269531 442.511719 L 503.269531 448.570312 L 442.917969 448.570312 Z M 442.917969 442.511719 " clip-rule="nonzero"/></clipPath><clipPath id="3042f3ffbf"><path d="M 359.523438 419.316406 L 419.875 419.316406 L 419.875 425.375 L 359.523438 425.375 Z M 359.523438 419.316406 " clip-rule="nonzero"/></clipPath><clipPath id="33083eda23"><path d="M 359.523438 430.914062 L 419.875 430.914062 L 419.875 436.972656 L 359.523438 436.972656 Z M 359.523438 430.914062 " clip-rule="nonzero"/></clipPath><clipPath id="24c13ddad7"><path d="M 359.523438 442.511719 L 419.875 442.511719 L 419.875 448.570312 L 359.523438 448.570312 Z M 359.523438 442.511719 " clip-rule="nonzero"/></clipPath><clipPath id="45bcbf8bfd"><path d="M 523.992188 442.511719 L 584.347656 442.511719 L 584.347656 448.570312 L 523.992188 448.570312 Z M 523.992188 442.511719 " clip-rule="nonzero"/></clipPath><clipPath id="05e549b1a8"><path d="M 442.917969 419.316406 L 503.269531 419.316406 L 503.269531 425.375 L 442.917969 425.375 Z M 442.917969 419.316406 " clip-rule="nonzero"/></clipPath><clipPath id="e3acefe639"><path d="M 442.917969 430.914062 L 503.269531 430.914062 L 503.269531 436.972656 L 442.917969 436.972656 Z M 442.917969 430.914062 " clip-rule="nonzero"/></clipPath><clipPath id="2986e04d12"><path d="M 523.992188 419.316406 L 584.347656 419.316406 L 584.347656 425.375 L 523.992188 425.375 Z M 523.992188 419.316406 " clip-rule="nonzero"/></clipPath><clipPath id="b34d8a8ea8"><path d="M 591 667 L 632 667 L 632 702 L 591 702 Z M 591 667 " clip-rule="nonzero"/></clipPath><clipPath id="f9c9c56f5a"><path d="M 620.121094 701.996094 C 619.140625 701.996094 618.554688 701.582031 618.382812 700.773438 L 618.382812 699.03125 C 618.382812 697.847656 618.644531 689.472656 618.644531 689.472656 L 617.398438 689.90625 C 617.164062 690.007812 616.945312 690.109375 616.730469 690.222656 C 614.214844 691.390625 612.667969 692.335938 612.023438 693.097656 C 611.617188 693.570312 610.601562 694.875 608.976562 697.023438 C 608.507812 697.433594 606.890625 699.492188 606.539062 699.902344 C 606.019531 700.476562 605.3125 700.800781 604.445312 700.863281 L 604.089844 700.875 C 603.515625 700.875 602.867188 700.753906 602.183594 700.511719 C 600.335938 699.761719 598.488281 698.496094 596.695312 696.761719 C 596.289062 696.351562 595.566406 695.597656 594.519531 694.492188 C 592.289062 691.875 591.40625 689.886719 591.835938 688.429688 C 592.125 687.457031 593.027344 686.738281 594.519531 686.292969 L 596.179688 686.292969 C 596.988281 686.292969 597.769531 686.265625 598.527344 686.207031 L 600.078125 686.121094 L 599.875 685.707031 C 599.046875 683.972656 598.871094 682.695312 599.339844 681.800781 C 599.722656 681.066406 600.5625 680.609375 601.824219 680.449219 L 604.394531 680.972656 C 603.925781 683.308594 603.488281 685.035156 603.042969 686.382812 C 602.746094 686.527344 602.59375 686.699219 602.359375 686.957031 C 601.414062 687.988281 600.886719 688.808594 600.601562 689.613281 C 601.003906 690.546875 601.800781 690.921875 602.867188 690.921875 C 605.582031 690.921875 608.21875 689.570312 610.703125 686.90625 C 612.027344 685.527344 613.203125 683.878906 614.191406 682.019531 C 614.824219 680.921875 615.539062 679.378906 616.367188 677.3125 C 617.042969 675.648438 617.589844 674.355469 618.023438 673.429688 C 618.125 672.765625 618.117188 672.3125 618.117188 671.898438 L 618.117188 671.640625 C 618.519531 672.164062 619.011719 672.773438 619.589844 673.46875 C 619.988281 674.035156 620.65625 674.648438 621.550781 675.265625 L 621.855469 675.480469 L 622.464844 674.085938 L 622.988281 672.6875 C 623.160156 672.390625 623.304688 672.101562 623.421875 671.816406 C 623.769531 670.828125 624.894531 669.058594 624.894531 669.058594 C 624.902344 669.023438 624.992188 668.777344 625.6875 667.757812 L 625.734375 667.417969 L 626.730469 669.71875 C 627.1875 670.523438 627.796875 671.417969 628.558594 672.425781 L 630.652344 675.304688 C 631.40625 676.171875 631.753906 677.308594 631.695312 678.699219 C 631.640625 679.167969 631.554688 679.601562 631.4375 680.011719 C 631.261719 681.007812 630.765625 681.820312 629.960938 682.457031 C 629.261719 683.035156 628.59375 683.621094 627.957031 684.199219 C 627.777344 684.375 627.582031 684.609375 627.347656 684.902344 C 627.308594 684.945312 627.269531 684.992188 627.238281 685.035156 L 627.214844 685.023438 L 627.011719 685.332031 L 626.921875 685.570312 C 626.636719 685.980469 626.460938 686.433594 626.386719 686.90625 C 626.039062 688.574219 625.773438 690.691406 625.597656 693.1875 C 625.597656 693.410156 625.570312 693.640625 625.515625 693.890625 L 625.515625 700.167969 C 624.890625 700.09375 624.3125 700.035156 623.777344 700.007812 L 623.421875 699.992188 L 623.601562 701.644531 C 622.632812 701.777344 622.125 701.851562 621.859375 701.910156 C 621.453125 701.96875 620.871094 701.996094 620.121094 701.996094 Z M 620.121094 701.996094 " clip-rule="nonzero"/></clipPath><clipPath id="7a71554180"><path d="M 599 420 L 674.394531 420 L 674.394531 478 L 599 478 Z M 599 420 " clip-rule="nonzero"/></clipPath><mask id="ad7d690e82"><g filter="url(#7eb2fffc3d)"><rect x="-81" width="972" fill="#000000" y="-80.999999" height="971.999992" fill-opacity="0.298"/></g></mask><clipPath id="2bbd617c16"><path d="M 0.359375 0.519531 L 36.839844 0.519531 L 36.839844 31 L 0.359375 31 Z M 0.359375 0.519531 " clip-rule="nonzero"/></clipPath><clipPath id="89e1166965"><path d="M 11.828125 15.382812 C 11.679688 15.589844 11.460938 15.851562 11.171875 16.171875 C 10.417969 16.984375 9.894531 17.796875 9.601562 18.613281 C 9.953125 19.484375 10.707031 19.921875 11.867188 19.921875 C 14.59375 19.921875 17.210938 18.582031 19.707031 15.90625 C 21.042969 14.511719 22.203125 12.882812 23.191406 11.019531 C 23.828125 9.914062 24.554688 8.34375 25.367188 6.3125 C 26.042969 4.648438 26.589844 3.351562 27.023438 2.429688 C 27.085938 2.320312 27.113281 1.101562 27.113281 0.636719 C 27.519531 1.160156 28.011719 1.773438 28.589844 2.46875 C 29.039062 3.101562 29.796875 3.777344 30.855469 4.476562 C 31.144531 4.675781 31.460938 4.878906 31.8125 5.085938 C 33.4375 6.078125 34.542969 6.921875 35.121094 7.617188 C 35.820312 8.492188 36.253906 9.539062 36.425781 10.753906 C 36.542969 11.859375 36.425781 13.023438 36.082031 14.25 C 36.050781 14.292969 36.019531 14.332031 35.992188 14.378906 C 35.648438 14.851562 34.898438 15.625 33.726562 16.691406 C 32.746094 17.675781 32.160156 18.636719 31.992188 19.570312 C 31.816406 21.140625 31.816406 22.996094 31.992188 25.148438 C 32.074219 26.082031 32.226562 27.363281 32.425781 28.988281 C 32.476562 29.515625 32.53125 30.066406 32.601562 30.644531 C 31.734375 30.761719 31.148438 30.847656 30.863281 30.910156 C 30.457031 30.96875 29.875 30.996094 29.121094 30.996094 C 28.136719 30.996094 27.554688 30.589844 27.382812 29.773438 L 27.382812 28.03125 C 27.382812 26.863281 27.644531 18.480469 27.644531 18.480469 C 27.246094 18.675781 26.824219 18.675781 26.378906 18.914062 C 26.167969 19.007812 25.945312 19.109375 25.726562 19.222656 C 23.230469 20.386719 21.664062 21.34375 21.023438 22.097656 C 20.617188 22.566406 19.601562 23.875 17.976562 26.023438 C 17.511719 26.429688 15.890625 28.492188 15.539062 28.902344 C 15.015625 29.480469 14.324219 29.800781 13.445312 29.863281 C 12.75 29.917969 11.996094 29.800781 11.183594 29.511719 C 9.328125 28.757812 7.5 27.503906 5.699219 25.761719 C 5.289062 25.351562 4.566406 24.597656 3.519531 23.492188 C -0.195312 19.132812 -0.195312 16.398438 3.519531 15.292969 C 4.042969 15.292969 4.597656 15.292969 5.175781 15.292969 C 5.992188 15.292969 6.769531 15.261719 7.53125 15.207031 L 9.09375 15.117188 L 11.828125 15.382812 C 11.785156 15.476562 12 15.179688 11.828125 15.382812 Z M 11.828125 15.382812 " clip-rule="nonzero"/></clipPath><clipPath id="ddc4c36f3a"><rect x="0" width="37" y="0" height="31"/></clipPath><mask id="0c4127c4c2"><g filter="url(#7eb2fffc3d)"><rect x="-81" width="972" fill="#000000" y="-80.999999" height="971.999992" fill-opacity="0.098"/></g></mask><clipPath id="e14ec0ac69"><path d="M 0.601562 0.199219 L 10.921875 0.199219 L 10.921875 18.441406 L 0.601562 18.441406 Z M 0.601562 0.199219 " clip-rule="nonzero"/></clipPath><clipPath id="ddd0725ebf"><path d="M 6.078125 18.25 C 6.429688 17.027344 6.546875 15.863281 6.429688 14.753906 C 6.253906 13.539062 5.820312 12.492188 5.121094 11.617188 C 4.539062 10.917969 3.4375 10.078125 1.8125 9.085938 C 1.460938 8.878906 1.140625 8.675781 0.855469 8.476562 C 1.027344 8.089844 1.230469 7.625 1.464844 7.082031 C 1.636719 6.621094 1.8125 6.148438 1.988281 5.6875 C 2.160156 5.394531 2.304688 5.105469 2.421875 4.816406 C 2.769531 3.828125 4.210938 1.453125 4.6875 0.757812 C 4.746094 0.691406 4.734375 0.417969 4.734375 0.417969 L 5.734375 2.71875 C 6.199219 3.617188 6.894531 4.425781 7.5625 5.425781 C 8.027344 6.0625 8.726562 7.023438 9.65625 8.304688 C 10.410156 9.175781 10.753906 10.304688 10.699219 11.699219 C 10.640625 12.167969 10.554688 12.601562 10.4375 13.011719 C 10.265625 14 9.769531 14.816406 8.960938 15.457031 C 8.261719 16.035156 7.59375 16.621094 6.957031 17.199219 C 6.777344 17.375 6.582031 17.605469 6.347656 17.902344 C 6.246094 18.015625 6.164062 18.128906 6.078125 18.25 Z M 6.078125 18.25 " clip-rule="nonzero"/></clipPath><clipPath id="10af70d842"><rect x="0" width="11" y="0" height="19"/></clipPath><mask id="1962c1c606"><g filter="url(#7eb2fffc3d)"><rect x="-81" width="972" fill="#000000" y="-80.999999" height="971.999992" fill-opacity="0.149"/></g></mask><clipPath id="8d00b1c3e1"><path d="M 0.800781 0.199219 L 5 0.199219 L 5 15.558594 L 0.800781 15.558594 Z M 0.800781 0.199219 " clip-rule="nonzero"/></clipPath><clipPath id="02e9340f13"><path d="M 4.992188 0.378906 C 4.675781 0.867188 4.46875 1.378906 4.386719 1.902344 C 4.035156 3.59375 3.777344 5.683594 3.601562 8.1875 C 3.601562 8.417969 3.570312 8.648438 3.515625 8.886719 L 3.515625 15.167969 C 2.75 15.074219 2.050781 15.011719 1.421875 14.992188 C 1.222656 13.363281 1.074219 12.082031 0.988281 11.152344 C 0.8125 9 0.8125 7.140625 0.988281 5.570312 C 1.160156 4.636719 1.742188 3.679688 2.726562 2.695312 C 3.894531 1.628906 4.648438 0.855469 4.992188 0.378906 Z M 4.992188 0.378906 " clip-rule="nonzero"/></clipPath><clipPath id="a790a2748b"><rect x="0" width="6" y="0" height="16"/></clipPath><clipPath id="c563ffdb91"><path d="M 601 420 L 674.394531 420 L 674.394531 478 L 601 478 Z M 601 420 " clip-rule="nonzero"/></clipPath><mask id="b7a45218cd"><g filter="url(#7eb2fffc3d)"><rect x="-81" width="972" fill="#000000" y="-80.999999" height="971.999992" fill-opacity="0.098"/></g></mask><clipPath id="76e42e05f5"><path d="M 1 11 L 22 11 L 22 27 L 1 27 Z M 1 11 " clip-rule="nonzero"/></clipPath><clipPath id="d7851bb7f6"><path d="M 1.085938 25.949219 C 1.460938 25.601562 1.867188 25.238281 2.300781 24.863281 C 3.105469 24.15625 3.992188 23.417969 4.957031 22.636719 C 5.015625 22.59375 5.070312 22.546875 5.136719 22.503906 C 5.671875 22.066406 6.238281 21.613281 6.832031 21.15625 C 7.414062 20.722656 7.976562 20.316406 8.535156 19.933594 C 12.589844 17.097656 16.144531 15.335938 19.199219 14.65625 C 19.855469 14.5 20.496094 14.398438 21.117188 14.347656 L 21.378906 13.5625 L 17.71875 12.253906 C 13.855469 10.832031 9.984375 10.992188 6.09375 12.738281 C 5.785156 12.871094 5.480469 13.019531 5.179688 13.171875 C 4.28125 13.621094 3.378906 14.160156 2.476562 14.785156 C 2.480469 14.746094 2.488281 14.707031 2.492188 14.671875 C 2.488281 14.707031 2.480469 14.746094 2.476562 14.78125 C 2.363281 15.597656 2.25 17.046875 2.136719 19.179688 C 2.144531 19.265625 2.164062 19.535156 1.609375 22.902344 L 1.347656 24.554688 C 1.230469 25.019531 1.144531 25.484375 1.085938 25.949219 L 1.066406 26.078125 L 1.078125 26.648438 C 1.078125 26.757812 1.082031 26.859375 1.089844 26.964844 C 1.074219 26.640625 1.070312 26.300781 1.085938 25.949219 Z M 1.085938 25.949219 " clip-rule="nonzero"/></clipPath><clipPath id="3fc9e5b18e"><path d="M 14 0 L 28 0 L 28 8 L 14 8 Z M 14 0 " clip-rule="nonzero"/></clipPath><clipPath id="081a023dbe"><path d="M 14.410156 1.4375 C 14.871094 1.671875 15.339844 1.902344 15.800781 2.136719 C 22.363281 5.625 25.785156 7.429688 26.078125 7.546875 C 26.65625 7.605469 27.066406 7.519531 27.292969 7.285156 C 25.667969 5.074219 23.664062 2.777344 21.285156 0.390625 C 21.761719 0.480469 22.238281 0.605469 22.710938 0.761719 C 22.238281 0.605469 21.765625 0.476562 21.292969 0.386719 C 20.804688 0.320312 20.3125 0.289062 19.808594 0.289062 C 18.128906 0.289062 16.34375 0.660156 14.296875 1.398438 C 14.234375 1.375 14.179688 1.359375 14.117188 1.335938 C 14.214844 1.371094 14.308594 1.402344 14.410156 1.4375 Z M 14.410156 1.4375 " clip-rule="nonzero"/></clipPath><clipPath id="b465ca180e"><path d="M 4 5 L 73.394531 5 L 73.394531 57.839844 L 4 57.839844 Z M 4 5 " clip-rule="nonzero"/></clipPath><clipPath id="5df97d5371"><path d="M 69.929688 33.191406 C 68.292969 33.191406 67.21875 33.871094 66.6875 35.285156 C 66.453125 35.859375 66.21875 37.367188 65.980469 39.910156 C 65.453125 44.429688 63.226562 46.628906 59.179688 46.628906 C 58.257812 46.628906 57.394531 46.511719 56.476562 46.261719 L 56.355469 46.195312 C 55.722656 46.363281 55.035156 46.449219 54.289062 46.449219 C 47.613281 46.449219 42.214844 42.230469 38.089844 33.800781 C 37.179688 31.933594 36.410156 30.1875 35.785156 28.566406 C 34.476562 25.136719 33.820312 22.257812 33.820312 19.929688 C 33.820312 16.632812 34.246094 14.042969 35.085938 12.164062 C 35.78125 10.574219 36.785156 9.496094 38.085938 8.9375 C 40.585938 7.949219 43.777344 8.761719 47.667969 11.375 C 48.074219 11.726562 48.484375 12.046875 48.886719 12.335938 C 49.125 12.566406 49.320312 12.765625 49.492188 12.9375 C 49.488281 12.933594 49.484375 12.925781 49.480469 12.921875 C 49.023438 12.347656 48.539062 11.804688 48.023438 11.292969 C 45.078125 8.167969 41.503906 6.203125 37.402344 5.449219 C 36.417969 5.273438 35.460938 5.1875 34.5625 5.1875 C 33.164062 5.1875 31.832031 5.402344 30.609375 5.820312 L 30.433594 5.878906 C 30.433594 5.882812 30.433594 5.882812 30.433594 5.882812 C 29.097656 6.382812 27.882812 7.136719 26.777344 8.152344 C 23.527344 11.117188 21.902344 15.828125 21.902344 22.285156 C 21.902344 22.941406 21.917969 23.597656 21.941406 24.246094 L 4.921875 37.027344 L 4.675781 34.980469 L 4.917969 37.027344 C 4.917969 38.539062 5.480469 39.832031 6.570312 40.867188 C 7.5625 41.671875 8.667969 42.128906 9.945312 42.261719 L 10.328125 42.34375 L 10.84375 42.351562 C 12.410156 41.308594 13.832031 39.96875 15.109375 38.339844 C 15.570312 37.820312 16.011719 37.265625 16.417969 36.683594 C 16.535156 36.390625 16.707031 36.101562 16.941406 35.808594 C 17.578125 34.875 18.15625 33.921875 18.683594 32.929688 C 19.609375 31.242188 20.417969 29.5 21.117188 27.695312 C 21.417969 26.898438 21.722656 26.109375 22.03125 25.339844 C 22.464844 31.128906 24.132812 36.394531 27.042969 41.128906 L 27.207031 41.386719 C 28.664062 43.664062 30.453125 45.863281 32.527344 47.929688 C 34.476562 49.898438 36.484375 51.570312 38.496094 52.902344 C 41.167969 54.84375 46.613281 57.714844 53.34375 57.613281 C 61.207031 57.613281 66.917969 54.679688 70.328125 48.890625 C 71.484375 47.097656 72.339844 45.042969 72.804688 42.78125 C 73.097656 41.433594 73.28125 40.4375 73.28125 39.730469 L 73.28125 35.894531 C 72.769531 34.074219 71.808594 33.191406 69.929688 33.191406 Z M 69.929688 33.191406 " clip-rule="nonzero"/></clipPath><clipPath id="bfb4c11370"><rect x="0" width="74" y="0" height="58"/></clipPath><mask id="d13f0ca478"><g filter="url(#7eb2fffc3d)"><rect x="-81" width="972" fill="#000000" y="-80.999999" height="971.999992" fill-opacity="0.149"/></g></mask><clipPath id="6ce3987fe0"><path d="M 0.0390625 0.28125 L 1.960938 0.28125 L 1.960938 1 L 0.0390625 1 Z M 0.0390625 0.28125 " clip-rule="nonzero"/></clipPath><clipPath id="1b9824cab0"><path d="M 1.632812 0.480469 C 1.179688 0.628906 0.757812 0.773438 0.371094 0.914062 C 0.816406 0.675781 1.238281 0.679688 1.632812 0.480469 Z M 1.632812 0.480469 " clip-rule="nonzero"/></clipPath><clipPath id="f7717ecafb"><rect x="0" width="2" y="0" height="1"/></clipPath><mask id="7f688f876c"><g filter="url(#7eb2fffc3d)"><rect x="-81" width="972" fill="#000000" y="-80.999999" height="971.999992" fill-opacity="0.1176"/></g></mask><clipPath id="53a919be45"><path d="M 0.558594 0.160156 L 23.601562 0.160156 L 23.601562 38.800781 L 0.558594 38.800781 Z M 0.558594 0.160156 " clip-rule="nonzero"/></clipPath><clipPath id="39566932e4"><path d="M 16.503906 4.949219 C 18.074219 6.984375 19.089844 9.222656 19.554688 11.664062 C 19.613281 11.726562 19.898438 13.964844 19.898438 14.71875 C 19.898438 16.699219 19.464844 18.964844 18.59375 21.523438 C 17.835938 24.144531 17.460938 25.972656 17.460938 27.019531 C 17.460938 27.136719 17.867188 29.117188 18.679688 32.953125 C 18.742188 33.070312 18.765625 33.15625 18.765625 33.214844 C 19.230469 34.199219 19.753906 35.074219 20.335938 35.832031 C 20.976562 36.648438 21.695312 37.285156 22.511719 37.75 C 22.800781 37.925781 23.121094 38.070312 23.46875 38.1875 L 23.386719 38.1875 C 22.746094 38.359375 22.046875 38.449219 21.289062 38.449219 C 14.613281 38.449219 9.214844 34.230469 5.089844 25.800781 C 4.179688 23.933594 3.410156 22.1875 2.785156 20.566406 C 1.476562 17.136719 0.820312 14.257812 0.820312 11.929688 C 0.820312 8.632812 1.246094 6.042969 2.085938 4.164062 C 2.78125 2.574219 3.785156 1.496094 5.089844 0.9375 C 7.585938 -0.0507812 10.777344 0.761719 14.667969 3.375 C 15.078125 3.726562 15.484375 4.046875 15.890625 4.335938 C 16.132812 4.574219 16.332031 4.773438 16.503906 4.949219 Z M 16.503906 4.949219 " clip-rule="nonzero"/></clipPath><clipPath id="555592a865"><rect x="0" width="24" y="0" height="39"/></clipPath><mask id="5c931d37ff"><g filter="url(#7eb2fffc3d)"><rect x="-81" width="972" fill="#000000" y="-80.999999" height="971.999992" fill-opacity="0.1176"/></g></mask><clipPath id="f1955836e6"><path d="M 0.28125 0 L 32.679688 0 L 32.679688 37.199219 L 0.28125 37.199219 Z M 0.28125 0 " clip-rule="nonzero"/></clipPath><clipPath id="7c548c3aba"><path d="M 32.433594 5.882812 C 31.097656 6.382812 29.882812 7.136719 28.777344 8.152344 C 25.527344 11.117188 23.902344 15.828125 23.902344 22.285156 C 23.902344 22.941406 23.917969 23.597656 23.945312 24.246094 L 6.921875 37.027344 L 6.660156 34.847656 C 6.507812 33.558594 6.488281 32.296875 6.613281 31.054688 C 7.019531 30.664062 7.265625 30.242188 7.355469 29.789062 C 7.703125 28.800781 7.644531 27.808594 7.179688 26.824219 C 6.832031 25.835938 6.191406 25.078125 5.265625 24.554688 C 5.03125 25.367188 4.566406 26.707031 3.871094 28.566406 C 3.804688 28.914062 3.765625 29.25 3.738281 29.570312 C 3.734375 29.640625 3.714844 29.714844 3.699219 29.789062 C 3.230469 28.738281 3.027344 27.460938 3.085938 25.949219 C 3.460938 25.601562 3.867188 25.238281 4.300781 24.863281 C 5.105469 24.15625 5.992188 23.417969 6.957031 22.636719 C 7.015625 22.59375 7.070312 22.546875 7.136719 22.503906 C 7.671875 22.066406 8.238281 21.613281 8.832031 21.15625 C 9.414062 20.722656 9.976562 20.316406 10.53125 19.933594 C 14.589844 17.097656 18.144531 15.335938 21.199219 14.65625 C 21.855469 14.5 22.496094 14.398438 23.113281 14.347656 L 23.378906 13.5625 L 19.71875 12.253906 C 15.855469 10.832031 11.980469 10.992188 8.09375 12.738281 C 7.785156 12.871094 7.480469 13.019531 7.179688 13.171875 C 6.28125 13.621094 5.378906 14.160156 4.476562 14.785156 C 4.597656 13.503906 4.882812 12.457031 5.347656 11.644531 L 5.523438 11.253906 L 5.609375 11.121094 L 4.300781 11.210938 C 3.605469 12.082031 2.910156 13.042969 2.210938 14.085938 C 1.515625 15.132812 0.992188 16.003906 0.644531 16.707031 C 0.582031 16.472656 0.554688 15.921875 0.554688 15.046875 C 0.789062 13.304688 1.167969 11.703125 1.6875 10.25 C 2.210938 8.679688 3.023438 7.195312 4.128906 5.800781 C 4.199219 5.699219 4.273438 5.601562 4.347656 5.492188 C 5.414062 4.183594 6.703125 3.125 8.222656 2.3125 C 9.960938 1.4375 11.703125 0.945312 13.445312 0.828125 C 14.144531 0.769531 15.128906 0.972656 16.40625 1.4375 C 16.871094 1.671875 17.335938 1.90625 17.800781 2.136719 C 24.363281 5.625 27.785156 7.429688 28.074219 7.546875 C 28.65625 7.609375 29.066406 7.519531 29.292969 7.285156 C 27.667969 5.074219 25.664062 2.777344 23.285156 0.394531 C 24.851562 0.683594 26.394531 1.324219 27.898438 2.3125 C 29.066406 3.011719 30.308594 3.941406 31.648438 5.101562 C 31.925781 5.378906 32.1875 5.636719 32.433594 5.882812 Z M 32.433594 5.882812 " clip-rule="nonzero"/></clipPath><clipPath id="766dea5ff0"><rect x="0" width="33" y="0" height="38"/></clipPath><mask id="ed98c96895"><g filter="url(#7eb2fffc3d)"><rect x="-81" width="972" fill="#000000" y="-80.999999" height="971.999992" fill-opacity="0.1176"/></g></mask><clipPath id="acf7e2afad"><path d="M 0.519531 1 L 17.320312 1 L 17.320312 20.160156 L 0.519531 20.160156 Z M 0.519531 1 " clip-rule="nonzero"/></clipPath><clipPath id="bd29ba0f31"><path d="M 12.683594 19.269531 C 12.101562 19.484375 11.546875 19.65625 11.027344 19.792969 C 10.925781 19.816406 10.824219 19.828125 10.722656 19.835938 C 10.175781 19.949219 9.667969 20.007812 9.199219 20.007812 C 7.632812 19.894531 6.355469 19.722656 5.367188 19.488281 C 4.09375 19.429688 2.613281 19.050781 0.925781 18.355469 L 0.839844 18.355469 C 2.410156 17.308594 3.832031 15.96875 5.109375 14.339844 C 5.570312 13.820312 6.011719 13.265625 6.417969 12.683594 C 6.535156 12.390625 6.707031 12.101562 6.941406 11.808594 C 7.578125 10.875 8.15625 9.921875 8.683594 8.929688 C 9.609375 7.246094 10.417969 5.5 11.117188 3.695312 C 11.417969 2.898438 11.722656 2.113281 12.03125 1.339844 C 12.464844 7.128906 14.132812 12.394531 17.042969 17.128906 C 16.46875 17.503906 15.859375 17.851562 15.214844 18.175781 C 14.300781 18.632812 13.460938 18.996094 12.683594 19.269531 Z M 12.683594 19.269531 " clip-rule="nonzero"/></clipPath><clipPath id="02a90c79f7"><rect x="0" width="18" y="0" height="21"/></clipPath><mask id="b5a875b0f5"><g filter="url(#7eb2fffc3d)"><rect x="-81" width="972" fill="#000000" y="-80.999999" height="971.999992" fill-opacity="0.0196"/></g></mask><clipPath id="8e8f1fea26"><path d="M 0.398438 0.320312 L 38.800781 0.320312 L 38.800781 50 L 0.398438 50 Z M 0.398438 0.320312 " clip-rule="nonzero"/></clipPath><clipPath id="7a2e571766"><path d="M 30.511719 46.5625 C 27.316406 42.445312 23.949219 38.214844 20.5 34 C 17.683594 30.550781 14.871094 26.9375 12.140625 23.269531 C 10.257812 20.90625 8.472656 18.503906 6.828125 16.113281 C 4.683594 13.03125 2.589844 9.917969 0.558594 6.78125 L 3.886719 4.953125 L 11.53125 0.84375 L 13.972656 0.496094 C 16.933594 3.574219 19.832031 6.683594 22.242188 9.308594 C 23.925781 11.167969 25.640625 13 27.378906 14.800781 C 28.367188 15.90625 29.414062 17.011719 30.519531 18.117188 C 32.855469 20.5625 35.132812 23.019531 37.351562 25.492188 L 37.125 25.808594 C 36.039062 27.183594 35.214844 28.683594 34.691406 30.246094 C 34.171875 31.691406 33.789062 33.304688 33.523438 35.070312 L 33.648438 36.703125 L 34.136719 35.804688 C 34.429688 35.296875 34.792969 34.722656 35.214844 34.085938 C 35.914062 33.035156 36.605469 32.074219 37.308594 31.207031 L 38.617188 31.121094 L 38.613281 31.121094 C 37.816406 32.167969 37.148438 33.199219 36.523438 34.347656 C 36.179688 34.929688 35.886719 35.542969 35.660156 36.179688 C 35.367188 36.703125 35.132812 37.261719 34.960938 37.835938 C 34.960938 37.835938 34.523438 39.355469 34.347656 39.929688 L 34.171875 40.457031 C 34.121094 40.632812 34 41.136719 33.910156 41.503906 C 33.792969 41.96875 33.707031 42.289062 33.648438 42.632812 C 33.46875 43.273438 33.328125 43.914062 33.210938 44.554688 C 33.09375 45.246094 33.011719 45.945312 32.949219 46.644531 C 32.949219 47.109375 32.921875 47.546875 32.859375 47.953125 C 32.925781 48.425781 33.011719 48.859375 33.125 49.261719 C 33.152344 49.460938 33.175781 49.65625 33.214844 49.855469 L 33.105469 49.90625 Z M 30.511719 46.5625 " clip-rule="nonzero"/></clipPath><clipPath id="d05e257b7a"><rect x="0" width="39" y="0" height="51"/></clipPath><mask id="b864c720f7"><g filter="url(#7eb2fffc3d)"><rect x="-81" width="972" fill="#000000" y="-80.999999" height="971.999992" fill-opacity="0.0471"/></g></mask><clipPath id="f8bfe7bb74"><path d="M 0 1 L 28 1 L 28 15.601562 L 0 15.601562 Z M 0 1 " clip-rule="nonzero"/></clipPath><clipPath id="f43baf7cec"><path d="M 6.570312 5.671875 L 6.621094 5.671875 C 6.621094 6.425781 6.585938 7.011719 6.53125 7.417969 L 6.441406 8.027344 L 8.539062 8.726562 C 9.988281 9.191406 11.261719 9.539062 12.371094 9.773438 C 14.222656 10.121094 15.90625 10.089844 17.417969 9.6875 C 19.15625 9.21875 20.609375 8.550781 21.769531 7.679688 C 23.28125 6.574219 24.152344 5.238281 24.386719 3.664062 C 23.164062 2.992188 22.378906 2.371094 22.03125 1.789062 C 22.554688 1.65625 23.105469 1.480469 23.6875 1.265625 L 24.90625 2.179688 C 25.023438 2.238281 25.136719 2.296875 25.253906 2.355469 L 25.253906 2.441406 L 25.339844 2.441406 C 26.210938 3.082031 26.847656 3.691406 27.257812 4.273438 C 27.777344 5.320312 27.835938 6.453125 27.433594 7.675781 C 27.140625 8.78125 26.53125 9.769531 25.601562 10.640625 C 23.335938 13.144531 20.257812 14.714844 16.367188 15.355469 C 15.4375 15.355469 14.132812 15.238281 12.449219 15.007812 C 10.652344 14.652344 9.371094 14.480469 8.617188 14.480469 C 7.804688 14.421875 6.441406 14.394531 4.523438 14.394531 C 3.566406 14.453125 2.738281 14.453125 2.039062 14.394531 L 1.996094 14.394531 C 1.300781 14.394531 0.71875 14.394531 0.253906 14.394531 C 0.488281 14.046875 1.097656 13.261719 2.085938 12.039062 C 2.957031 11.109375 3.476562 10.261719 3.65625 9.507812 C 4.003906 8.578125 4.265625 7.910156 4.4375 7.503906 C 4.730469 6.6875 5.164062 6.195312 5.746094 6.019531 C 5.972656 5.964844 6.25 5.847656 6.570312 5.671875 Z M 6.570312 5.671875 " clip-rule="nonzero"/></clipPath><clipPath id="4b37b390c1"><rect x="0" width="29" y="0" height="16"/></clipPath><mask id="c153670ef0"><g filter="url(#7eb2fffc3d)"><rect x="-81" width="972" fill="#000000" y="-80.999999" height="971.999992" fill-opacity="0.0471"/></g></mask><clipPath id="cf4b04502c"><path d="M 0.679688 0.160156 L 32.359375 0.160156 L 32.359375 57.761719 L 0.679688 57.761719 Z M 0.679688 0.160156 " clip-rule="nonzero"/></clipPath><clipPath id="af62150c98"><path d="M 6.285156 24.972656 C 5.738281 24.382812 5.273438 23.785156 4.890625 23.1875 C 4.433594 22.546875 3.9375 21.933594 3.414062 21.355469 C 2.949219 20.769531 2.484375 20.160156 2.019531 19.519531 C 1.558594 18.820312 1.238281 17.863281 1.066406 16.640625 C 0.949219 15.480469 0.886719 14.433594 0.886719 13.496094 C 0.886719 13.152344 0.917969 12.828125 0.976562 12.539062 C 1.382812 11.785156 1.816406 11.03125 2.285156 10.273438 C 5.128906 6.1875 8.542969 3.3125 12.515625 1.636719 C 12.675781 1.582031 12.835938 1.523438 12.996094 1.460938 C 17.234375 -0.167969 20.800781 0.0078125 23.707031 1.984375 C 26.898438 4.191406 28.929688 6.636719 29.804688 9.3125 C 30.730469 11.988281 31.371094 13.617188 31.714844 14.199219 C 32.179688 14.722656 32.238281 17.308594 31.890625 21.964844 C 31.617188 26.378906 31.238281 31.46875 30.761719 37.230469 C 30.75 37.339844 30.734375 37.457031 30.714844 37.582031 C 30.707031 37.777344 30.691406 37.980469 30.671875 38.191406 C 30.324219 44.46875 29.859375 50.925781 29.28125 57.554688 C 29.070312 57.601562 28.851562 57.644531 28.625 57.683594 L 16.523438 49.484375 C 17.648438 45.824219 18.796875 42.144531 19.960938 38.449219 C 20.65625 36.183594 21.320312 33.914062 21.960938 31.644531 C 22.597656 29.550781 23.355469 27.398438 24.226562 25.1875 C 24.632812 23.96875 25.007812 22.71875 25.359375 21.4375 C 25.996094 18.179688 26.113281 14.894531 25.707031 11.578125 C 25.472656 10.59375 24.832031 8.527344 24.832031 8.527344 C 24.082031 6.722656 22.855469 5.386719 21.179688 4.511719 C 20.5625 3.953125 16.941406 3.617188 16.648438 3.726562 C 14.09375 4.484375 12.121094 5.996094 10.722656 8.265625 C 9.039062 10.648438 7.96875 13.320312 7.503906 16.289062 C 7.503906 16.347656 7.09375 19.628906 6.804688 21.261719 C 6.609375 22.515625 6.4375 23.75 6.285156 24.972656 Z M 6.285156 24.972656 " clip-rule="nonzero"/></clipPath><clipPath id="e021d08f98"><rect x="0" width="33" y="0" height="58"/></clipPath><mask id="c70a6275d5"><g filter="url(#7eb2fffc3d)"><rect x="-81" width="972" fill="#000000" y="-80.999999" height="971.999992" fill-opacity="0.098"/></g></mask><clipPath id="33c21a49b2"><path d="M 0.398438 0.398438 L 34 0.398438 L 34 46.480469 L 0.398438 46.480469 Z M 0.398438 0.398438 " clip-rule="nonzero"/></clipPath><clipPath id="5fe43e5909"><path d="M 33.953125 37.285156 C 33.941406 37.414062 33.707031 38.28125 33.648438 38.632812 C 33.46875 39.273438 33.328125 39.910156 33.210938 40.550781 C 33.09375 41.246094 33.011719 41.945312 32.949219 42.644531 C 32.949219 43.109375 32.921875 43.546875 32.859375 43.953125 C 32.921875 44.417969 33.011719 44.855469 33.125 45.261719 C 33.160156 45.539062 33.203125 45.816406 33.253906 46.09375 C 32.339844 44.914062 31.429688 43.734375 30.511719 42.5625 C 27.261719 38.375 23.925781 34.1875 20.5 30 C 17.65625 26.511719 14.867188 22.933594 12.140625 19.269531 C 10.285156 16.941406 8.511719 14.558594 6.828125 12.113281 C 4.683594 9.03125 2.589844 5.917969 0.558594 2.78125 L 4.214844 0.773438 C 7.292969 4.4375 10.398438 8.214844 13.53125 12.113281 C 16.496094 15.722656 19.398438 19.269531 22.242188 22.757812 C 25.378906 26.476562 28.484375 30.289062 31.5625 34.1875 C 32.363281 35.21875 33.160156 36.253906 33.953125 37.285156 Z M 33.953125 37.285156 " clip-rule="nonzero"/></clipPath><clipPath id="9f3d745ebd"><rect x="0" width="35" y="0" height="47"/></clipPath><mask id="9fcbee53aa"><g filter="url(#7eb2fffc3d)"><rect x="-81" width="972" fill="#000000" y="-80.999999" height="971.999992" fill-opacity="0.0471"/></g></mask><clipPath id="dd6a7efaa9"><path d="M 0.320312 0.0390625 L 31 0.0390625 L 31 31 L 0.320312 31 Z M 0.320312 0.0390625 " clip-rule="nonzero"/></clipPath><clipPath id="57b16baad1"><path d="M 0.730469 26.011719 C 0.671875 25.894531 0.671875 25.8125 0.730469 25.75 C 0.910156 25.929688 1.078125 26.042969 1.253906 26.101562 C 1.398438 26.167969 1.558594 26.214844 1.734375 26.230469 C 3.632812 26.542969 7.742188 24.460938 14.054688 19.992188 C 18.992188 16.449219 23.574219 11.476562 27.816406 5.078125 C 28.117188 4.582031 28.40625 4.117188 28.683594 3.683594 C 29.542969 2.300781 30.296875 1.152344 30.949219 0.234375 L 30.949219 0.277344 L 30.339844 2.195312 C 29.933594 3.421875 29.703125 4.613281 29.640625 5.773438 C 29.351562 9.027344 28.453125 12.027344 26.941406 14.757812 C 26.882812 14.820312 26.855469 14.910156 26.855469 15.019531 C 25.984375 16.359375 21.632812 21.246094 20.589844 22.351562 C 18.671875 24.503906 16.753906 26.597656 14.839844 28.632812 L 12.664062 30.808594 L 12.578125 30.898438 C 12.378906 30.957031 11.851562 30.941406 11.011719 30.851562 C 10.171875 30.734375 9.011719 30.546875 7.527344 30.285156 C 4.332031 29.703125 2.386719 28.714844 1.695312 27.320312 C 1.582031 27.117188 1.480469 26.9375 1.386719 26.796875 C 1.117188 26.359375 0.902344 26.097656 0.730469 26.011719 Z M 0.730469 26.011719 " clip-rule="nonzero"/></clipPath><clipPath id="b5320e7701"><rect x="0" width="32" y="0" height="31"/></clipPath><mask id="7ed3e39687"><g filter="url(#7eb2fffc3d)"><rect x="-81" width="972" fill="#000000" y="-80.999999" height="971.999992" fill-opacity="0.2"/></g></mask><clipPath id="bb87c3a3dd"><path d="M 1 1 L 17.839844 1 L 17.839844 18.960938 L 1 18.960938 Z M 1 1 " clip-rule="nonzero"/></clipPath><clipPath id="65273fe7ec"><path d="M 1.484375 9.429688 C 1.484375 9.355469 1.484375 9.28125 1.484375 9.210938 C 0.976562 6.101562 0.875 3.496094 1.179688 1.40625 L 1.222656 1.359375 C 1.363281 1.257812 1.496094 1.15625 1.613281 1.054688 C 1.488281 2.292969 1.507812 3.554688 1.660156 4.847656 L 1.921875 7.027344 C 1.921875 8.542969 2.472656 9.820312 3.574219 10.867188 C 4.796875 11.859375 6.21875 12.351562 7.84375 12.351562 L 7.929688 12.351562 C 9.617188 13.050781 11.09375 13.425781 12.371094 13.484375 C 13.359375 13.71875 14.636719 13.894531 16.203125 14.007812 C 16.664062 14.007812 17.175781 13.949219 17.726562 13.832031 C 17.539062 14.449219 17.292969 14.917969 16.988281 15.226562 C 13.792969 17.730469 10.601562 18.953125 7.40625 18.890625 C 6.132812 18.953125 5.171875 18.859375 4.539062 18.628906 C 3.371094 18.339844 2.734375 17.730469 2.621094 16.796875 C 2.441406 15.980469 2.183594 14.902344 1.832031 13.566406 C 1.609375 12.242188 1.488281 10.859375 1.484375 9.429688 Z M 1.484375 9.429688 " clip-rule="nonzero"/></clipPath><clipPath id="0dbe281bb2"><rect x="0" width="18" y="0" height="19"/></clipPath><mask id="36812ef175"><g filter="url(#7eb2fffc3d)"><rect x="-81" width="972" fill="#000000" y="-80.999999" height="971.999992" fill-opacity="0.2"/></g></mask><clipPath id="49f3f14506"><path d="M 0.320312 1 L 16 1 L 16 29.921875 L 0.320312 29.921875 Z M 0.320312 1 " clip-rule="nonzero"/></clipPath><clipPath id="83a174edfd"><path d="M 3.546875 29.613281 C 3.597656 29.195312 3.636719 28.804688 3.679688 28.429688 C 4.433594 24.589844 4.230469 20.058594 3.066406 14.824219 C 2.429688 12.613281 1.878906 10.605469 1.414062 8.804688 C 1.082031 7.605469 0.773438 6.488281 0.5 5.441406 C 5.539062 5 10.574219 3.59375 15.609375 1.210938 L 15.609375 1.296875 C 15.671875 1.53125 15.953125 3.394531 15.953125 3.570312 C 15.492188 3.917969 14.96875 4.324219 14.386719 4.789062 C 10.84375 7.988281 8.496094 11.449219 7.332031 15.171875 C 6.984375 16.453125 6.429688 19.449219 5.675781 24.15625 C 5.132812 26.910156 4.421875 28.730469 3.546875 29.613281 Z M 3.546875 29.613281 " clip-rule="nonzero"/></clipPath><clipPath id="37075c2e5f"><rect x="0" width="17" y="0" height="30"/></clipPath><mask id="9d0e50d4fc"><g filter="url(#7eb2fffc3d)"><rect x="-81" width="972" fill="#000000" y="-80.999999" height="971.999992" fill-opacity="0.098"/></g></mask><clipPath id="494afdf2f6"><path d="M 0.121094 1 L 7.320312 1 L 7.320312 14.878906 L 0.121094 14.878906 Z M 0.121094 1 " clip-rule="nonzero"/></clipPath><clipPath id="8cae9975ab"><path d="M 1.714844 8.648438 C 1.773438 8.296875 1.976562 7.21875 1.976562 7.160156 C 2.089844 6.230469 2.0625 5.417969 1.886719 4.71875 C 1.773438 3.671875 1.453125 2.738281 0.933594 1.925781 C 0.789062 1.640625 0.613281 1.351562 0.410156 1.054688 C 1.0625 1.640625 1.730469 2.515625 2.414062 3.675781 C 3.867188 6.175781 4.589844 8.09375 4.589844 9.433594 C 4.589844 9.433594 4.964844 9.929688 5.195312 10.222656 C 6.476562 11.90625 7.019531 13.023438 7.113281 13.539062 C 7.304688 14.609375 5.777344 14.914062 5.636719 14.496094 C 5.402344 13.566406 3.601562 11.09375 3.542969 11.09375 C 2.902344 10.21875 2.292969 9.402344 1.714844 8.648438 Z M 1.714844 8.648438 " clip-rule="nonzero"/></clipPath><clipPath id="a6e98dcb5d"><rect x="0" width="8" y="0" height="15"/></clipPath><mask id="9c74337bfd"><g filter="url(#7eb2fffc3d)"><rect x="-81" width="972" fill="#000000" y="-80.999999" height="971.999992" fill-opacity="0.098"/></g></mask><clipPath id="f06359bb28"><path d="M 0.359375 0.28125 L 16.921875 0.28125 L 16.921875 12 L 0.359375 12 Z M 0.359375 0.28125 " clip-rule="nonzero"/></clipPath><clipPath id="3197fbdfbc"><path d="M 0.417969 9.773438 C 1.171875 8.785156 2.042969 7.796875 3.03125 6.808594 C 5.816406 4.246094 8.863281 2.328125 12.171875 1.046875 C 12.871094 0.816406 13.511719 0.609375 14.089844 0.4375 C 14.152344 0.554688 14.207031 0.699219 14.269531 0.871094 C 14.726562 2.675781 15.480469 4.335938 16.527344 5.84375 L 9.210938 9.769531 L 5.554688 11.777344 C 3.636719 11.488281 1.925781 10.816406 0.417969 9.773438 Z M 0.417969 9.773438 " clip-rule="nonzero"/></clipPath><clipPath id="caca83f592"><rect x="0" width="17" y="0" height="13"/></clipPath><mask id="5d0773fac6"><g filter="url(#7eb2fffc3d)"><rect x="-81" width="972" fill="#000000" y="-80.999999" height="971.999992" fill-opacity="0.098"/></g></mask><clipPath id="4caa6d1c69"><path d="M 0.28125 0.28125 L 15.878906 0.28125 L 15.878906 52.839844 L 0.28125 52.839844 Z M 0.28125 0.28125 " clip-rule="nonzero"/></clipPath><clipPath id="56623558e5"><path d="M 1.023438 50.429688 C 0.578125 46.980469 0.613281 42.894531 1.109375 38.167969 C 1.765625 33.269531 2.242188 29.417969 2.546875 26.613281 C 3.421875 25.730469 4.132812 23.914062 4.683594 21.15625 C 5.433594 16.449219 5.988281 13.453125 6.332031 12.171875 C 7.496094 8.449219 9.84375 4.988281 13.386719 1.789062 C 13.96875 1.324219 14.492188 0.917969 14.957031 0.570312 C 16.117188 7.546875 15.828125 13.972656 14.085938 19.847656 C 13.386719 22.753906 12.347656 27.148438 10.957031 33.019531 C 9.890625 37.464844 9.140625 41.378906 8.691406 44.757812 C 8.214844 45.453125 6.773438 47.824219 6.425781 48.8125 C 6.3125 49.105469 6.164062 49.394531 5.992188 49.6875 C 5.816406 50.148438 5.640625 50.621094 5.46875 51.082031 C 5.234375 51.628906 5.027344 52.089844 4.859375 52.476562 C 3.796875 51.777344 3.042969 51.101562 2.59375 50.46875 C 2.015625 49.773438 1.519531 49.160156 1.113281 48.636719 C 1.113281 49.101562 1.089844 50.320312 1.023438 50.429688 Z M 1.023438 50.429688 " clip-rule="nonzero"/></clipPath><clipPath id="fff6349287"><rect x="0" width="16" y="0" height="53"/></clipPath><mask id="9615e42445"><g filter="url(#7eb2fffc3d)"><rect x="-81" width="972" fill="#000000" y="-80.999999" height="971.999992" fill-opacity="0.098"/></g></mask><clipPath id="7e776ec284"><path d="M 1 1 L 19.519531 1 L 19.519531 28 L 1 28 Z M 1 1 " clip-rule="nonzero"/></clipPath><clipPath id="43cc5796b8"><path d="M 1.125 1.179688 C 1.242188 1.226562 1.363281 1.265625 1.46875 1.308594 C 1.53125 1.308594 1.621094 1.335938 1.734375 1.394531 C 7.320312 3.273438 12.910156 3.957031 18.5 3.441406 C 18.773438 4.488281 19.078125 5.605469 19.414062 6.804688 C 18.949219 7.09375 18.457031 7.414062 17.933594 7.757812 C 17.550781 8.015625 17.167969 8.265625 16.800781 8.5 C 12.964844 11.160156 10.414062 13.476562 9.140625 15.4375 C 8.792969 16.019531 8.355469 17.15625 7.832031 18.839844 C 7.539062 19.828125 7.078125 21.429688 6.4375 23.640625 C 5.859375 25.496094 5.222656 26.953125 4.523438 28 C 4.523438 27.882812 4.523438 27.796875 4.523438 27.738281 C 3.945312 25.117188 3.539062 22.851562 3.304688 20.929688 C 2.957031 18.835938 2.605469 15.640625 2.257812 11.332031 C 1.914062 7.152344 1.558594 3.949219 1.210938 1.738281 C 1.210938 1.679688 1.210938 1.621094 1.210938 1.566406 C 1.175781 1.453125 1.144531 1.324219 1.125 1.179688 Z M 1.125 1.179688 " clip-rule="nonzero"/></clipPath><clipPath id="747f878b6b"><rect x="0" width="20" y="0" height="29"/></clipPath><mask id="582a9e66d9"><g filter="url(#7eb2fffc3d)"><rect x="-81" width="972" fill="#000000" y="-80.999999" height="971.999992" fill-opacity="0.098"/></g></mask><clipPath id="06827315de"><path d="M 0.71875 0.0390625 L 4.800781 0.0390625 L 4.800781 13.238281 L 0.71875 13.238281 Z M 0.71875 0.0390625 " clip-rule="nonzero"/></clipPath><clipPath id="3503e0b5d8"><path d="M 2.609375 11.894531 C 2.511719 12.074219 2.523438 13.148438 2.433594 13.074219 C 2.40625 13.246094 1.644531 11.824219 1.5625 11.460938 C 1.214844 10.296875 1.011719 8.84375 0.957031 7.097656 C 0.957031 7.042969 0.957031 6.957031 0.957031 6.835938 C 1.128906 6.257812 1.363281 5.703125 1.652344 5.179688 C 1.886719 4.542969 2.171875 3.929688 2.523438 3.347656 C 3.144531 2.203125 3.808594 1.175781 4.523438 0.25 L 4.351562 0.640625 C 3.882812 1.457031 3.597656 2.503906 3.476562 3.78125 C 3.363281 4.59375 3.25 6.046875 3.132812 8.144531 C 3.183594 8.242188 3.007812 9.492188 2.609375 11.894531 Z M 2.609375 11.894531 " clip-rule="nonzero"/></clipPath><clipPath id="a67fdc766c"><rect x="0" width="5" y="0" height="14"/></clipPath><mask id="1beb4ff543"><g filter="url(#7eb2fffc3d)"><rect x="-81" width="972" fill="#000000" y="-80.999999" height="971.999992" fill-opacity="0.098"/></g></mask><clipPath id="4c9f2ab783"><path d="M 0.878906 0.558594 L 4.238281 0.558594 L 4.238281 5 L 0.878906 5 Z M 0.878906 0.558594 " clip-rule="nonzero"/></clipPath><clipPath id="3aa4f05e45"><path d="M 1.964844 0.742188 L 4.140625 2.21875 C 3.289062 2.847656 2.457031 3.53125 1.660156 4.269531 C 1.535156 4.425781 1.359375 4.644531 1.136719 4.921875 C 0.945312 4.621094 0.890625 4.289062 0.957031 3.925781 C 1.355469 2.609375 1.691406 1.546875 1.964844 0.742188 Z M 1.964844 0.742188 " clip-rule="nonzero"/></clipPath><clipPath id="46db229fd8"><rect x="0" width="5" y="0" height="6"/></clipPath><mask id="a911d479a7"><g filter="url(#7eb2fffc3d)"><rect x="-81" width="972" fill="#000000" y="-80.999999" height="971.999992" fill-opacity="0.098"/></g></mask><clipPath id="c81266d001"><path d="M 0.199219 0.320312 L 1.878906 0.320312 L 1.878906 2.238281 L 0.199219 2.238281 Z M 0.199219 0.320312 " clip-rule="nonzero"/></clipPath><clipPath id="354d63c603"><path d="M 1.433594 2.074219 C 1.089844 1.648438 0.796875 1.113281 0.5625 0.460938 C 0.582031 0.722656 1.359375 2.140625 1.433594 2.074219 C 1.527344 2.132812 1.507812 1.042969 1.609375 0.894531 C 1.554688 1.269531 1.496094 1.664062 1.433594 2.074219 Z M 1.433594 2.074219 " clip-rule="nonzero"/></clipPath><clipPath id="7d0f2bb5a3"><rect x="0" width="2" y="0" height="3"/></clipPath><mask id="b687bc4246"><g filter="url(#7eb2fffc3d)"><rect x="-81" width="972" fill="#000000" y="-80.999999" height="971.999992" fill-opacity="0.698"/></g></mask><clipPath id="a28bea17c3"><path d="M 0.28125 0.121094 L 21.640625 0.121094 L 21.640625 17.640625 L 0.28125 17.640625 Z M 0.28125 0.121094 " clip-rule="nonzero"/></clipPath><clipPath id="c2d44598a8"><path d="M 0.621094 14.6875 C 0.847656 14.648438 1.066406 14.601562 1.277344 14.554688 C 2.492188 14.324219 3.625 14.003906 4.667969 13.601562 C 11.058594 11.039062 16.28125 6.910156 20.34375 1.210938 L 20.085938 0.207031 C 20.785156 1.171875 21.21875 2.234375 21.394531 3.394531 C 21.65625 5.234375 21.222656 7.023438 20.085938 8.757812 C 19.246094 10.023438 18.027344 11.257812 16.425781 12.46875 C 13.234375 14.828125 9.3125 16.488281 4.667969 17.4375 Z M 0.621094 14.6875 " clip-rule="nonzero"/></clipPath><clipPath id="5f549161a9"><rect x="0" width="22" y="0" height="18"/></clipPath><mask id="da7764fc63"><g filter="url(#7eb2fffc3d)"><rect x="-81" width="972" fill="#000000" y="-80.999999" height="971.999992" fill-opacity="0.4"/></g></mask><clipPath id="760df2a72d"><path d="M 0.441406 0.441406 L 56.359375 0.441406 L 56.359375 94.519531 L 0.441406 94.519531 Z M 0.441406 0.441406 " clip-rule="nonzero"/></clipPath><clipPath id="9b7f43d963"><path d="M 16.738281 94.398438 C 16.621094 94.335938 16.535156 94.308594 16.472656 94.308594 C 16.363281 94.269531 16.25 94.230469 16.128906 94.179688 C 12.359375 92.851562 8.582031 90.980469 4.804688 88.554688 C 3.46875 87.683594 2.136719 86.75 0.796875 85.761719 C 0.976562 84.65625 1.148438 83.523438 1.324219 82.359375 C 2.207031 76.558594 2.847656 70.585938 3.238281 64.429688 L 5.851562 66.21875 C 9.511719 68.71875 12.5 68.078125 14.820312 64.300781 L 38.339844 25.390625 C 40.605469 21.550781 39.90625 18.382812 36.25 15.882812 L 32.675781 13.4375 C 37.320312 12.484375 41.242188 10.824219 44.4375 8.46875 C 46.035156 7.257812 47.253906 6.023438 48.089844 4.757812 C 49.125 4 50.019531 3.261719 50.792969 2.53125 C 51.4375 1.914062 51.992188 1.304688 52.449219 0.699219 C 53.839844 2.558594 55.035156 4.386719 56.015625 6.191406 C 55.570312 7.148438 55.0625 8.226562 54.492188 9.421875 C 52.460938 13.628906 49.625 19.304688 46 26.433594 C 36.191406 45.628906 30.09375 57.902344 27.714844 63.25 C 26.789062 65.300781 25.910156 67.351562 25.058594 69.402344 C 23.882812 72.273438 22.78125 75.148438 21.75 78.035156 C 20.085938 82.707031 18.621094 87.386719 17.347656 92.078125 C 17.132812 92.847656 16.933594 93.621094 16.738281 94.398438 Z M 16.738281 94.398438 " clip-rule="nonzero"/></clipPath><clipPath id="cca1ab798e"><rect x="0" width="57" y="0" height="95"/></clipPath><mask id="cc03d282de"><g filter="url(#7eb2fffc3d)"><rect x="-81" width="972" fill="#000000" y="-80.999999" height="971.999992" fill-opacity="0.4"/></g></mask><clipPath id="f927d32059"><path d="M 0.71875 0.160156 L 5.761719 0.160156 L 5.761719 10 L 0.71875 10 Z M 0.71875 0.160156 " clip-rule="nonzero"/></clipPath><clipPath id="8f1515b818"><path d="M 5.441406 5.699219 C 4.988281 6.304688 4.433594 6.914062 3.785156 7.53125 C 3.019531 8.257812 2.117188 9.003906 1.085938 9.757812 C 2.226562 8.023438 2.664062 6.234375 2.394531 4.394531 C 2.21875 3.238281 1.789062 2.171875 1.085938 1.207031 L 0.910156 0.554688 C 0.972656 0.613281 1.027344 0.667969 1.085938 0.730469 C 1.148438 0.789062 1.203125 0.847656 1.265625 0.902344 L 5.179688 5.351562 C 5.269531 5.464844 5.355469 5.582031 5.441406 5.699219 Z M 5.441406 5.699219 " clip-rule="nonzero"/></clipPath><clipPath id="7af2ee91bf"><rect x="0" width="6" y="0" height="10"/></clipPath></defs><g mask="url(#d17ad9689f)"><g transform="matrix(1, 0, 0, 1, 0, 0.000000000000039746)"><g clip-path="url(#764179452b)"><g clip-path="url(#5ae451170d)"><g clip-path="url(#03bb3c9157)"><g clip-path="url(#716f626ceb)"><path fill="#800ff0" d="M -193.636719 695.152344 L 462.253906 -89.390625 L 854.523438 238.554688 L 198.632812 1023.097656 Z M -193.636719 695.152344 " fill-opacity="1" fill-rule="nonzero"/></g></g></g></g></g></g><g clip-path="url(#8502c11901)"><path fill="#b6a6a6" d="M 291.3125 311.378906 L 291.3125 369.582031 L 309.851562 369.582031 L 309.851562 311.378906 Z M 291.3125 311.378906 " fill-opacity="1" fill-rule="nonzero"/></g><g clip-path="url(#64a7ba9c7e)"><g clip-path="url(#fe34dcbeed)"><path fill="#efebeb" d="M 235.460938 180.597656 L 235.460938 313.507812 L 554.492188 313.507812 L 554.492188 180.597656 Z M 235.460938 180.597656 " fill-opacity="1" fill-rule="nonzero"/></g></g><g clip-path="url(#4e7e95585e)"><path fill="#85b1dc" d="M 235.460938 153.757812 L 554.492188 153.757812 L 554.492188 183.523438 L 235.460938 183.523438 Z M 235.460938 153.757812 " fill-opacity="1" fill-rule="nonzero"/></g><g clip-path="url(#08b32150a2)"><path fill="#b6a6a6" d="M 387.191406 283.125 L 387.191406 289.179688 L 485.378906 289.179688 L 485.378906 283.125 Z M 387.191406 283.125 " fill-opacity="1" fill-rule="nonzero"/></g><path fill="#800ff0" d="M 529.394531 163.808594 C 527.679688 163.808594 526.222656 164.410156 525.023438 165.613281 C 523.820312 166.902344 523.21875 168.359375 523.21875 169.992188 C 523.21875 171.628906 523.820312 173.042969 525.023438 174.246094 C 526.222656 175.535156 527.679688 176.179688 529.394531 176.179688 C 531.027344 176.179688 532.445312 175.535156 533.640625 174.246094 C 534.839844 173.042969 535.429688 171.625 535.429688 169.992188 C 535.429688 168.363281 534.839844 166.902344 533.640625 165.613281 C 532.445312 164.410156 531.027344 163.808594 529.394531 163.808594 Z M 529.394531 163.808594 " fill-opacity="1" fill-rule="nonzero"/><path fill="#800ff0" d="M 496.066406 163.808594 C 494.351562 163.808594 492.902344 164.410156 491.691406 165.613281 C 490.488281 166.902344 489.894531 168.359375 489.894531 169.992188 C 489.894531 171.628906 490.488281 173.042969 491.691406 174.246094 C 492.894531 175.535156 494.351562 176.179688 496.066406 176.179688 C 497.699219 176.179688 499.117188 175.535156 500.308594 174.246094 C 501.515625 173.042969 502.105469 171.625 502.105469 169.992188 C 502.105469 168.363281 501.515625 166.902344 500.308594 165.613281 C 499.113281 164.410156 497.699219 163.808594 496.066406 163.808594 Z M 496.066406 163.808594 " fill-opacity="1" fill-rule="nonzero"/><g clip-path="url(#b839d2a8ea)"><path fill="#b6a6a6" d="M 387.0625 206.585938 L 387.0625 212.644531 L 530.816406 212.644531 L 530.816406 206.585938 Z M 387.0625 206.585938 " fill-opacity="1" fill-rule="nonzero"/></g><path fill="#800ff0" d="M 512.664062 163.808594 C 510.949219 163.808594 509.496094 164.410156 508.292969 165.613281 C 507.089844 166.902344 506.492188 168.359375 506.492188 169.992188 C 506.492188 171.628906 507.089844 173.042969 508.292969 174.246094 C 509.496094 175.535156 510.949219 176.179688 512.664062 176.179688 C 514.296875 176.179688 515.714844 175.535156 516.914062 174.246094 C 518.109375 173.042969 518.699219 171.625 518.699219 169.992188 C 518.699219 168.363281 518.109375 166.902344 516.914062 165.613281 C 515.714844 164.410156 514.296875 163.808594 512.664062 163.808594 Z M 512.664062 163.808594 " fill-opacity="1" fill-rule="nonzero"/><g clip-path="url(#ad25e83e6e)"><path fill="#b6a6a6" d="M 387.0625 271.527344 L 387.0625 277.582031 L 530.816406 277.582031 L 530.816406 271.527344 Z M 387.0625 271.527344 " fill-opacity="1" fill-rule="nonzero"/></g><g clip-path="url(#94be990a0a)"><path fill="#b6a6a6" d="M 387.191406 229.78125 L 387.191406 235.835938 L 485.378906 235.835938 L 485.378906 229.78125 Z M 387.191406 229.78125 " fill-opacity="1" fill-rule="nonzero"/></g><g clip-path="url(#6963367761)"><path fill="#b6a6a6" d="M 387.0625 259.929688 L 387.0625 265.988281 L 530.816406 265.988281 L 530.816406 259.929688 Z M 387.0625 259.929688 " fill-opacity="1" fill-rule="nonzero"/></g><g clip-path="url(#85e6ab404f)"><path fill="#b6a6a6" d="M 387.0625 218.183594 L 387.0625 224.238281 L 530.816406 224.238281 L 530.816406 218.183594 Z M 387.0625 218.183594 " fill-opacity="1" fill-rule="nonzero"/></g><g clip-path="url(#c440bf8aac)"><path fill="#d7cece" d="M 258.628906 197.4375 L 258.628906 296.652344 L 364.671875 296.652344 L 364.671875 197.4375 Z M 258.628906 197.4375 " fill-opacity="1" fill-rule="nonzero"/></g><g clip-path="url(#19b40165b0)"><g clip-path="url(#4cb942f47d)"><path fill="#efebeb" d="M 131.222656 325.722656 L 131.222656 530.128906 L 293.503906 530.128906 L 293.503906 325.722656 Z M 131.222656 325.722656 " fill-opacity="1" fill-rule="nonzero"/></g></g><g clip-path="url(#7b0fe967c8)"><path fill="#957d7e" d="M 182.183594 433.238281 L 182.183594 439.292969 L 242.539062 439.292969 L 242.539062 433.238281 Z M 182.183594 433.238281 " fill-opacity="1" fill-rule="nonzero"/></g><path fill="#800ff0" d="M 131.222656 299.617188 L 131.222656 329.378906 L 293.503906 329.378906 L 293.503906 299.617188 Z M 131.222656 299.617188 " fill-opacity="1" fill-rule="nonzero"/><g clip-path="url(#b3607bc149)"><path fill="#957d7e" d="M 182.183594 421.640625 L 182.183594 427.695312 L 242.539062 427.695312 L 242.539062 421.640625 Z M 182.183594 421.640625 " fill-opacity="1" fill-rule="nonzero"/></g><g clip-path="url(#cb7cf4c726)"><path fill="#957d7e" d="M 182.183594 410.042969 L 182.183594 416.097656 L 242.539062 416.097656 L 242.539062 410.042969 Z M 182.183594 410.042969 " fill-opacity="1" fill-rule="nonzero"/></g><path fill="#800ff0" d="M 178.835938 455.265625 L 245.628906 455.265625 L 245.628906 510.546875 L 178.835938 510.546875 Z M 178.835938 455.265625 " fill-opacity="1" fill-rule="nonzero"/><path fill="#95dfe6" d="M 262.875 309.28125 C 261.160156 309.28125 259.699219 309.878906 258.5 311.085938 C 257.300781 312.371094 256.699219 313.832031 256.699219 315.464844 C 256.699219 317.097656 257.300781 318.515625 258.5 319.71875 C 259.699219 321.003906 261.160156 321.648438 262.875 321.648438 C 264.507812 321.648438 265.921875 321.003906 267.117188 319.71875 C 268.320312 318.515625 268.917969 317.097656 268.917969 315.464844 C 268.917969 313.832031 268.324219 312.371094 267.117188 311.085938 C 265.917969 309.878906 264.503906 309.28125 262.875 309.28125 Z M 262.875 309.28125 " fill-opacity="1" fill-rule="nonzero"/><path fill="#95dfe6" d="M 246.273438 309.28125 C 244.554688 309.28125 243.097656 309.878906 241.898438 311.085938 C 240.695312 312.371094 240.09375 313.832031 240.09375 315.464844 C 240.09375 317.097656 240.695312 318.515625 241.898438 319.71875 C 243.097656 321.003906 244.554688 321.648438 246.273438 321.648438 C 247.902344 321.648438 249.316406 321.003906 250.515625 319.71875 C 251.71875 318.515625 252.3125 317.097656 252.3125 315.464844 C 252.3125 313.832031 251.71875 312.371094 250.515625 311.085938 C 249.316406 309.878906 247.902344 309.28125 246.273438 309.28125 Z M 246.273438 309.28125 " fill-opacity="1" fill-rule="nonzero"/><path fill="#95dfe6" d="M 279.605469 309.28125 C 277.890625 309.28125 276.429688 309.878906 275.230469 311.085938 C 274.03125 312.371094 273.429688 313.832031 273.429688 315.464844 C 273.429688 317.097656 274.03125 318.515625 275.230469 319.71875 C 276.429688 321.003906 277.890625 321.648438 279.605469 321.648438 C 281.234375 321.648438 282.652344 321.003906 283.847656 319.71875 C 285.050781 318.515625 285.648438 317.097656 285.648438 315.464844 C 285.648438 313.832031 285.054688 312.371094 283.847656 311.085938 C 282.648438 309.878906 281.234375 309.28125 279.605469 309.28125 Z M 279.605469 309.28125 " fill-opacity="1" fill-rule="nonzero"/><path fill="#95dfe6" d="M 212.296875 400.765625 C 219.757812 400.765625 226.109375 398.101562 231.339844 392.773438 C 236.65625 387.535156 239.324219 381.179688 239.324219 373.707031 C 239.324219 366.238281 236.664062 359.832031 231.339844 354.507812 C 226.109375 349.273438 219.757812 346.648438 212.296875 346.648438 C 204.839844 346.648438 198.441406 349.273438 193.121094 354.507812 C 187.894531 359.832031 185.273438 366.234375 185.273438 373.707031 C 185.273438 381.175781 187.894531 387.535156 193.121094 392.773438 C 198.441406 398.097656 204.832031 400.765625 212.296875 400.765625 Z M 212.296875 400.765625 " fill-opacity="1" fill-rule="nonzero"/><g clip-path="url(#283c4b2703)"><g clip-path="url(#e547fa1fc9)"><path fill="#efebeb" d="M 307.660156 325.722656 L 307.660156 530.128906 L 626.691406 530.128906 L 626.691406 325.722656 Z M 307.660156 325.722656 " fill-opacity="1" fill-rule="nonzero"/></g></g><path fill="#85b1dc" d="M 374.707031 412.746094 L 406.5 412.746094 C 410.703125 412.746094 412.800781 410.652344 412.800781 406.4375 L 412.800781 374.480469 C 412.800781 370.265625 410.703125 368.171875 406.5 368.171875 L 374.707031 368.171875 C 370.417969 368.171875 368.269531 370.265625 368.269531 374.480469 L 368.269531 406.433594 C 368.269531 410.644531 370.417969 412.746094 374.707031 412.746094 Z M 374.707031 412.746094 " fill-opacity="1" fill-rule="nonzero"/><path fill="#800ff0" d="M 419.238281 478.847656 C 419.238281 482.28125 420.441406 485.203125 422.828125 487.605469 C 425.332031 490.101562 428.277344 491.34375 431.710938 491.34375 L 502.492188 491.34375 C 505.921875 491.34375 508.839844 490.101562 511.230469 487.605469 C 513.726562 485.195312 514.964844 482.28125 514.964844 478.847656 L 514.964844 478.71875 C 514.964844 475.285156 513.726562 472.320312 511.230469 469.828125 C 508.824219 467.421875 505.921875 466.226562 502.492188 466.226562 L 431.710938 466.226562 C 428.277344 466.226562 425.328125 467.429688 422.828125 469.828125 C 420.421875 472.320312 419.238281 475.285156 419.238281 478.71875 Z M 419.238281 478.847656 " fill-opacity="1" fill-rule="nonzero"/><path fill="#85b1dc" d="M 554.492188 299.617188 L 307.660156 299.617188 L 307.660156 329.378906 L 626.691406 329.378906 L 626.691406 299.617188 Z M 554.492188 299.617188 " fill-opacity="1" fill-rule="nonzero"/><path fill="#800ff0" d="M 568.261719 322.035156 C 569.898438 322.035156 571.3125 321.390625 572.507812 320.105469 C 573.710938 318.902344 574.308594 317.484375 574.308594 315.851562 C 574.308594 314.21875 573.710938 312.757812 572.507812 311.46875 C 571.304688 310.265625 569.886719 309.667969 568.261719 309.667969 C 566.550781 309.667969 565.09375 310.265625 563.894531 311.46875 C 562.6875 312.757812 562.09375 314.21875 562.09375 315.851562 C 562.09375 317.484375 562.6875 318.902344 563.894531 320.105469 C 565.085938 321.390625 566.550781 322.035156 568.261719 322.035156 Z M 568.261719 322.035156 " fill-opacity="1" fill-rule="nonzero"/><path fill="#800ff0" d="M 540.464844 412.746094 L 572.257812 412.746094 C 576.460938 412.746094 578.558594 410.652344 578.558594 406.4375 L 578.558594 374.480469 C 578.558594 370.265625 576.460938 368.171875 572.257812 368.171875 L 540.464844 368.171875 C 536.175781 368.171875 534.03125 370.265625 534.03125 374.480469 L 534.03125 406.433594 C 534.03125 410.644531 536.175781 412.746094 540.464844 412.746094 Z M 540.464844 412.746094 " fill-opacity="1" fill-rule="nonzero"/><path fill="#800ff0" d="M 584.863281 322.035156 C 586.496094 322.035156 587.917969 321.390625 589.105469 320.105469 C 590.3125 318.902344 590.90625 317.484375 590.90625 315.851562 C 590.90625 314.21875 590.3125 312.757812 589.105469 311.46875 C 587.90625 310.265625 586.480469 309.667969 584.863281 309.667969 C 583.148438 309.667969 581.699219 310.265625 580.488281 311.46875 C 579.289062 312.757812 578.691406 314.21875 578.691406 315.851562 C 578.691406 317.484375 579.289062 318.902344 580.488281 320.105469 C 581.695312 321.390625 583.148438 322.035156 584.863281 322.035156 Z M 584.863281 322.035156 " fill-opacity="1" fill-rule="nonzero"/><path fill="#800ff0" d="M 601.59375 322.035156 C 603.226562 322.035156 604.648438 321.390625 605.835938 320.105469 C 607.042969 318.902344 607.636719 317.484375 607.636719 315.851562 C 607.636719 314.21875 607.042969 312.757812 605.835938 311.46875 C 604.632812 310.265625 603.207031 309.667969 601.59375 309.667969 C 599.878906 309.667969 598.429688 310.265625 597.21875 311.46875 C 596.015625 312.757812 595.421875 314.21875 595.421875 315.851562 C 595.421875 317.484375 596.015625 318.902344 597.21875 320.105469 C 598.425781 321.390625 599.878906 322.035156 601.59375 322.035156 Z M 601.59375 322.035156 " fill-opacity="1" fill-rule="nonzero"/><path fill="#85b1dc" d="M 457.585938 412.746094 L 489.382812 412.746094 C 493.59375 412.746094 495.683594 410.652344 495.683594 406.4375 L 495.683594 374.480469 C 495.683594 370.265625 493.59375 368.171875 489.382812 368.171875 L 457.585938 368.171875 C 453.300781 368.171875 451.152344 370.265625 451.152344 374.480469 L 451.152344 406.433594 C 451.152344 410.644531 453.300781 412.746094 457.585938 412.746094 Z M 457.585938 412.746094 " fill-opacity="1" fill-rule="nonzero"/><g clip-path="url(#84c04a5653)"><path fill="#b6a6a6" d="M 523.992188 430.914062 L 523.992188 436.972656 L 584.347656 436.972656 L 584.347656 430.914062 Z M 523.992188 430.914062 " fill-opacity="1" fill-rule="nonzero"/></g><g clip-path="url(#674210da8e)"><path fill="#b6a6a6" d="M 442.917969 442.511719 L 442.917969 448.570312 L 503.269531 448.570312 L 503.269531 442.511719 Z M 442.917969 442.511719 " fill-opacity="1" fill-rule="nonzero"/></g><g clip-path="url(#3042f3ffbf)"><path fill="#b6a6a6" d="M 359.523438 419.316406 L 359.523438 425.375 L 419.875 425.375 L 419.875 419.316406 Z M 359.523438 419.316406 " fill-opacity="1" fill-rule="nonzero"/></g><g clip-path="url(#33083eda23)"><path fill="#b6a6a6" d="M 359.523438 430.914062 L 359.523438 436.972656 L 419.875 436.972656 L 419.875 430.914062 Z M 359.523438 430.914062 " fill-opacity="1" fill-rule="nonzero"/></g><g clip-path="url(#24c13ddad7)"><path fill="#b6a6a6" d="M 359.523438 442.511719 L 359.523438 448.570312 L 419.875 448.570312 L 419.875 442.511719 Z M 359.523438 442.511719 " fill-opacity="1" fill-rule="nonzero"/></g><g clip-path="url(#45bcbf8bfd)"><path fill="#b6a6a6" d="M 523.992188 442.511719 L 523.992188 448.570312 L 584.347656 448.570312 L 584.347656 442.511719 Z M 523.992188 442.511719 " fill-opacity="1" fill-rule="nonzero"/></g><g clip-path="url(#05e549b1a8)"><path fill="#b6a6a6" d="M 442.917969 419.316406 L 442.917969 425.375 L 503.269531 425.375 L 503.269531 419.316406 Z M 442.917969 419.316406 " fill-opacity="1" fill-rule="nonzero"/></g><g clip-path="url(#e3acefe639)"><path fill="#b6a6a6" d="M 442.917969 430.914062 L 442.917969 436.972656 L 503.269531 436.972656 L 503.269531 430.914062 Z M 442.917969 430.914062 " fill-opacity="1" fill-rule="nonzero"/></g><g clip-path="url(#2986e04d12)"><path fill="#b6a6a6" d="M 523.992188 419.316406 L 523.992188 425.375 L 584.347656 425.375 L 584.347656 419.316406 Z M 523.992188 419.316406 " fill-opacity="1" fill-rule="nonzero"/></g><path fill="#85b1dc" d="M 642.144531 614.824219 L 642.144531 547.5 C 642.144531 543.578125 641.148438 539.558594 638.964844 535.207031 C 638.058594 533.542969 636.914062 531.699219 635.429688 529.714844 L 635.195312 529.414062 L 631.09375 524.75 L 630.875 524.867188 L 631.21875 526.183594 C 627.1875 531.8125 621.945312 535.949219 615.640625 538.476562 C 614.609375 538.875 613.476562 539.195312 612.269531 539.421875 C 612.246094 539.429688 611.566406 539.601562 611.34375 539.644531 L 615.601562 542.539062 L 619.171875 544.984375 C 622.75 547.425781 623.441406 550.566406 621.226562 554.320312 L 597.707031 593.230469 C 596.34375 595.453125 594.726562 596.578125 592.902344 596.578125 C 591.6875 596.582031 590.347656 596.085938 588.921875 595.109375 L 586.308594 593.320312 L 586.144531 593.515625 L 586.382812 593.757812 C 585.777344 600.640625 585.117188 606.320312 584.308594 611.617188 L 583.8125 614.710938 L 583.875 614.757812 C 585.46875 615.933594 586.71875 616.8125 587.816406 617.53125 C 591.484375 619.886719 595.242188 621.765625 598.988281 623.113281 L 599.148438 623.183594 L 599.171875 623.332031 L 599.726562 623.53125 C 604.085938 624.992188 608.515625 625.734375 612.894531 625.734375 C 614.105469 625.734375 615.316406 625.679688 616.507812 625.570312 C 621.5 625.132812 626.558594 623.722656 631.554688 621.371094 L 631.566406 621.363281 L 631.828125 621.085938 C 635.074219 619.53125 638.335938 617.554688 642.15625 614.863281 Z M 642.144531 614.824219 " fill-opacity="1" fill-rule="nonzero"/><path fill="#f9b57c" d="M 615.171875 472.90625 C 613.007812 472.832031 610.910156 472.402344 608.875 471.617188 L 605.992188 470.308594 L 606.078125 469.699219 C 606.128906 469.347656 606.546875 468.589844 606.550781 467.984375 L 606.613281 467.675781 L 606.570312 467.675781 L 606.570312 467.632812 C 606.59375 467.382812 606.609375 467.09375 606.613281 466.800781 C 606.4375 465.949219 606.175781 464.882812 605.832031 463.566406 C 605.609375 462.257812 605.488281 460.855469 605.484375 459.429688 L 605.484375 459.039062 C 605.484375 459.039062 605.078125 458.976562 604.980469 458.878906 C 604.0625 458.078125 603.304688 457.292969 602.609375 456.421875 C 602.609375 456.421875 601.386719 455.019531 601.21875 454.675781 C 600.753906 454.03125 600.375 453.355469 600.085938 452.667969 C 599.796875 452.03125 599.5625 451.359375 599.390625 450.664062 C 599.339844 450.472656 599.296875 450.285156 599.257812 450.097656 C 599.203125 449.820312 599.164062 449.542969 599.125 449.265625 C 599.011719 448.855469 598.925781 448.421875 598.867188 447.957031 C 598.925781 447.542969 598.949219 447.109375 598.949219 446.648438 C 599.011719 445.945312 599.097656 445.25 599.214844 444.554688 C 599.328125 443.914062 599.476562 443.277344 599.652344 442.636719 C 599.710938 442.277344 599.957031 441.28125 599.957031 441.28125 L 600.171875 440.449219 L 600.308594 440.046875 C 600.523438 439.355469 600.691406 438.742188 600.867188 438.101562 C 601.117188 437.300781 601.351562 436.722656 601.652344 436.179688 C 601.886719 435.539062 602.171875 434.929688 602.523438 434.347656 C 603.097656 433.289062 603.714844 432.324219 604.359375 431.464844 L 604.414062 431.5 C 604.414062 431.5 605.71875 431.574219 605.597656 432.878906 C 604.945312 437.558594 604.617188 438.710938 606.382812 442.652344 C 610.148438 444.769531 607.511719 450.722656 607.910156 454.035156 C 608.75 460.992188 617.535156 461.304688 623.417969 461.722656 C 623.882812 461.722656 623.285156 463.542969 623.285156 463.542969 C 623.472656 463.996094 624.242188 464.609375 625.480469 465.289062 C 625.25 466.855469 623.613281 469.472656 622.113281 470.570312 C 620.007812 472.070312 617.691406 472.851562 615.171875 472.90625 Z M 615.171875 472.90625 " fill-opacity="1" fill-rule="nonzero"/><path fill="#f9b57c" d="M 566.554688 406.777344 C 564.648438 406.488281 562.917969 405.8125 561.417969 404.773438 C 560.71875 404.25 559.996094 403.636719 559.238281 402.941406 C 558.261719 401.90625 557.585938 400.699219 557.238281 399.363281 C 556.71875 397.167969 556.542969 394.90625 556.714844 392.652344 L 556.734375 392.367188 L 556.832031 391.941406 L 556.898438 391.523438 L 556.976562 391.15625 C 557.089844 390.226562 557.0625 389.40625 556.886719 388.71875 C 556.773438 387.695312 556.453125 386.742188 555.933594 385.925781 C 555.789062 385.640625 555.613281 385.351562 555.410156 385.054688 C 555.089844 384.667969 554.863281 384.421875 554.625 384.183594 C 552.835938 382.503906 552.222656 380.480469 552.800781 378.160156 C 553.210938 378.027344 553.519531 378 553.765625 378 C 554.761719 378 555.574219 378.582031 556.191406 379.734375 C 556.59375 380.828125 557.183594 381.898438 557.933594 382.875 C 559.023438 384.773438 560.582031 386.195312 562.546875 387.0625 C 564.113281 387.8125 565.753906 388.3125 567.425781 388.546875 C 570.714844 389.300781 573.125 391.207031 574.566406 394.21875 C 574.785156 394.6875 574.949219 395.097656 575.089844 395.4375 C 575.183594 395.636719 575.222656 395.746094 575.269531 395.871094 C 575.726562 397.664062 576.492188 399.34375 577.527344 400.84375 L 572.117188 406.351562 Z M 566.554688 406.777344 " fill-opacity="1" fill-rule="nonzero"/><path fill="#f9b57c" d="M 603.046875 691.488281 C 601.875 691.488281 600.402344 690.359375 600.050781 689.480469 C 600.324219 688.726562 600.800781 687.914062 601.617188 687.035156 C 601.910156 686.714844 602.125 686.457031 602.277344 686.25 L 602.5 686.25 L 602.5625 686.03125 C 603.015625 684.621094 603.996094 683.007812 604.394531 680.972656 L 604.523438 680.277344 C 605.15625 676.585938 605.535156 674.46875 605.65625 673.992188 C 606.230469 671.429688 606.289062 668.464844 605.828125 665.179688 C 605.589844 663.191406 605.003906 660.253906 604.089844 656.457031 C 603.390625 653.664062 602.871094 651.515625 602.519531 650.003906 L 602.523438 649.734375 C 601.949219 647.140625 601.542969 644.871094 601.304688 642.929688 C 600.949219 640.796875 600.601562 637.570312 600.257812 633.332031 C 599.917969 629.234375 599.570312 626.007812 599.214844 623.738281 L 599.128906 623.179688 L 599.769531 623.410156 C 604.113281 624.867188 608.53125 625.605469 612.894531 625.605469 C 614.097656 625.605469 615.296875 625.550781 616.5 625.441406 C 621.519531 625.003906 626.601562 623.578125 631.609375 621.210938 C 631.648438 621.433594 631.914062 623.308594 631.914062 623.308594 C 633.109375 630.519531 632.820312 637.007812 631.089844 642.847656 C 630.460938 645.449219 627.957031 656.019531 627.957031 656.019531 C 626.914062 660.371094 626.152344 664.320312 625.691406 667.757812 C 625.097656 668.625 623.210938 676.332031 623.210938 676.332031 C 623.210938 676.332031 617.425781 676.1875 616.828125 677.65625 C 616.007812 679.710938 615.289062 681.203125 614.648438 682.320312 C 613.660156 684.183594 612.210938 686.089844 610.882812 687.46875 C 608.398438 690.136719 605.761719 691.488281 603.046875 691.488281 Z M 603.046875 691.488281 " fill-opacity="1" fill-rule="nonzero"/><path fill="#f9b57c" d="M 568.042969 566.675781 C 568.015625 566.613281 564.054688 564.378906 564.035156 564.308594 C 562.609375 564.332031 561.476562 564.964844 559.945312 564.964844 C 557.128906 565.890625 549.964844 568.738281 549.964844 568.738281 C 549.691406 569.546875 549.355469 570.609375 548.957031 571.925781 C 548.902344 572.230469 548.933594 572.515625 549.054688 572.769531 L 549.128906 572.933594 L 548.53125 573.753906 C 548.230469 574.230469 548.246094 574.75 548.53125 575.320312 C 549.25 576.164062 550.128906 577.074219 551.144531 578.027344 C 551.832031 578.664062 552.855469 579.433594 554.277344 580.386719 C 555.300781 581.085938 556.484375 581.4375 557.792969 581.441406 L 558.113281 581.429688 C 559.488281 581.371094 560.804688 580.996094 562.027344 580.386719 C 562.589844 579.566406 563.128906 578.792969 563.636719 578.070312 C 564.984375 576.203125 571.347656 571.589844 572.332031 570.660156 C 572.121094 570.660156 568.042969 566.675781 568.042969 566.675781 Z M 568.042969 566.675781 " fill-opacity="1" fill-rule="nonzero"/><path fill="#feffff" d="M 564.304688 565.421875 L 564.304688 565.050781 C 564.351562 564.886719 562.964844 563.496094 563.078125 563.324219 C 570.289062 552.15625 580.6875 540.46875 583.386719 527.375 L 586.464844 522.550781 L 587.207031 519.933594 C 587.902344 517.402344 588.398438 514.820312 588.6875 512.257812 C 588.839844 510.441406 589.035156 508.785156 589.265625 507.113281 C 588.691406 506.316406 588.25 505.75 587.890625 505.1875 C 587.433594 504.546875 586.9375 503.933594 586.414062 503.355469 C 585.949219 502.769531 585.484375 502.160156 585.019531 501.519531 C 584.558594 500.820312 584.234375 499.851562 584.066406 498.640625 C 583.945312 497.480469 583.886719 496.433594 583.886719 495.496094 C 583.886719 495.164062 583.917969 494.855469 583.972656 494.570312 C 584.03125 493.90625 584.148438 493.292969 584.316406 492.707031 C 584.609375 491.785156 584.988281 491.019531 585.449219 490.4375 C 585.972656 489.855469 586.492188 489.304688 587.019531 488.78125 C 587.597656 488.144531 588.117188 487.589844 588.589844 487.121094 C 589.109375 486.601562 590.039062 485.78125 591.375 484.683594 C 592.769531 483.574219 593.78125 482.730469 594.421875 482.152344 C 595.117188 481.628906 595.929688 480.929688 596.859375 480.0625 C 597.832031 479.199219 598.625 478.402344 599.210938 477.703125 C 599.792969 476.949219 600.144531 476.511719 600.257812 476.398438 C 600.488281 476.042969 601.097656 475.257812 602.085938 474.039062 C 602.941406 473.125 603.476562 472.269531 603.652344 471.507812 C 604.003906 470.578125 604.261719 469.914062 604.4375 469.503906 C 604.734375 468.6875 605.167969 468.195312 605.746094 468.019531 C 605.976562 467.964844 606.257812 467.847656 606.570312 467.675781 L 606.675781 467.851562 C 606.617188 468.425781 606.585938 469.011719 606.527344 469.417969 L 606.441406 470.027344 L 608.539062 470.726562 C 609.953125 471.183594 611.246094 471.535156 612.367188 471.773438 C 613.222656 471.933594 614.046875 472.011719 614.828125 472.011719 C 615.734375 472.011719 616.605469 471.902344 617.417969 471.6875 C 619.152344 471.21875 620.617188 470.542969 621.769531 469.679688 C 623.195312 468.632812 624.0625 467.359375 624.351562 465.886719 L 624.390625 465.667969 L 624.199219 465.5625 C 623.070312 464.921875 622.363281 464.34375 622.03125 463.789062 C 622.390625 463.699219 622.664062 462.542969 623.054688 462.410156 L 623.59375 462.21875 C 624.371094 461.945312 625.210938 461.585938 626.121094 461.128906 C 626.765625 460.804688 628.527344 460.351562 629.105469 459.980469 C 630.597656 462.359375 632.441406 464.648438 634.585938 466.785156 C 636.542969 468.757812 639.320312 472.789062 639.496094 472.90625 C 639.425781 473.175781 639.429688 480.898438 638.410156 483.898438 C 637.835938 486.539062 636.84375 489.585938 635.449219 492.96875 C 634.804688 494.546875 633.839844 496.660156 632.574219 499.253906 C 632.113281 500.414062 631.621094 501.605469 631.09375 502.828125 C 630.6875 503.878906 630.28125 504.863281 629.878906 505.796875 C 629.414062 506.839844 628.949219 507.832031 628.484375 508.761719 C 627.445312 510.851562 626.855469 513.050781 626.742188 515.304688 L 629.007812 519.40625 C 629.855469 521.1875 630.410156 522.582031 630.746094 523.765625 L 630.917969 524.542969 L 631.359375 526.210938 C 627.386719 531.773438 622.097656 536.027344 615.6875 538.59375 C 614.65625 538.992188 613.515625 539.316406 612.304688 539.546875 C 612.292969 539.550781 611.847656 539.644531 611.625 539.683594 L 599.527344 531.492188 L 600.988281 535.195312 C 595.4375 553.058594 589.878906 562.058594 574.800781 571.988281 C 574.652344 572.015625 573.539062 570.136719 571.613281 570.277344 C 568.117188 570.53125 564.304688 565.421875 564.304688 565.421875 Z M 564.304688 565.421875 " fill-opacity="1" fill-rule="nonzero"/><path fill="#feffff" d="M 596.511719 446.5625 C 593.316406 442.445312 589.949219 438.214844 586.5 434 C 583.683594 430.550781 580.871094 426.9375 578.140625 423.269531 C 576.257812 420.90625 574.472656 418.503906 572.828125 416.113281 C 570.683594 413.03125 568.589844 409.917969 566.558594 406.78125 L 569.886719 404.953125 L 577.53125 400.84375 L 579.972656 400.496094 C 582.933594 403.574219 585.832031 406.683594 588.242188 409.308594 C 589.925781 411.167969 591.640625 413 593.378906 414.800781 C 594.367188 415.90625 595.414062 417.011719 596.519531 418.117188 C 598.855469 420.5625 601.132812 423.019531 603.351562 425.492188 L 604.617188 431.121094 L 604.613281 431.121094 C 603.816406 432.167969 603.148438 433.199219 602.523438 434.347656 C 602.179688 434.929688 601.886719 435.542969 601.660156 436.179688 C 601.367188 436.703125 601.132812 437.261719 600.960938 437.835938 C 600.960938 437.835938 600.523438 439.355469 600.347656 439.929688 L 600.171875 440.457031 C 600.121094 440.632812 600 441.136719 599.910156 441.503906 C 599.792969 441.96875 599.707031 442.289062 599.648438 442.632812 C 599.472656 443.273438 599.332031 443.914062 599.210938 444.554688 C 599.09375 445.246094 599.011719 445.945312 598.949219 446.644531 C 598.949219 447.109375 598.921875 447.546875 598.859375 447.953125 C 598.925781 448.425781 599.011719 448.859375 599.125 449.261719 C 599.152344 449.460938 599.179688 449.65625 599.214844 449.855469 L 599.105469 449.90625 Z M 596.511719 446.5625 " fill-opacity="1" fill-rule="nonzero"/><path fill="#800ff0" d="M 615.675781 542.4375 L 619.242188 544.878906 C 622.902344 547.375 623.601562 550.550781 621.335938 554.386719 L 597.816406 593.300781 C 595.496094 597.074219 592.511719 597.714844 588.847656 595.214844 L 586.238281 593.429688 L 563.632812 578.074219 C 565.003906 576.171875 570.707031 571.195312 571.695312 570.265625 C 572.410156 570.265625 573.664062 570.324219 573.957031 570.089844 C 576.453125 568.054688 578.804688 565.871094 581.011719 563.546875 L 580.664062 563.808594 L 582.839844 561.628906 C 584.75 559.59375 586.671875 557.5 588.585938 555.347656 C 589.632812 554.246094 593.984375 549.359375 594.851562 548.015625 C 594.851562 547.902344 594.882812 547.816406 594.941406 547.757812 C 596.445312 545.023438 597.347656 542.027344 597.636719 538.773438 C 597.699219 537.605469 597.929688 536.414062 598.335938 535.195312 L 598.945312 533.273438 L 598.945312 533.230469 C 598.90625 533.195312 598.933594 533.152344 599.03125 533.101562 C 599.199219 532.558594 599.355469 532.019531 599.511719 531.488281 L 611.617188 539.6875 Z M 615.675781 542.4375 " fill-opacity="1" fill-rule="nonzero"/><path fill="#800ff0" d="M 564.292969 565.335938 C 564.101562 565.339844 563.113281 565.59375 562.8125 565.640625 C 561.925781 565.78125 561.550781 565.6875 560.199219 565.992188 C 557.222656 566.660156 554.617188 568.355469 552.144531 570.222656 L 549.96875 568.742188 L 518.402344 547.234375 C 514.683594 544.734375 513.988281 541.59375 516.308594 537.8125 L 539.824219 498.90625 C 542.085938 495.070312 545.078125 494.402344 548.792969 496.902344 L 586.460938 522.550781 C 585.910156 524.582031 585.378906 526.585938 584.851562 528.566406 C 584.269531 531.417969 583.488281 534.207031 582.496094 536.941406 C 582.496094 537 582.46875 537.089844 582.414062 537.207031 C 582.0625 538.191406 581.542969 539.039062 580.84375 539.734375 C 578.691406 541.832031 576.867188 544.152344 575.359375 546.710938 C 573.90625 549.039062 572.628906 551.394531 571.527344 553.777344 C 570.886719 555.117188 570.246094 556.371094 569.609375 557.535156 C 569.316406 558 569.03125 558.40625 568.742188 558.75 C 568.679688 558.8125 568.679688 558.898438 568.742188 559.011719 C 568.449219 558.839844 568.246094 558.898438 568.132812 559.191406 C 567.839844 559.765625 567.375 560.527344 566.738281 561.460938 C 566.738281 561.515625 566.707031 561.574219 566.652344 561.632812 C 565.894531 562.5625 565.199219 563.523438 564.558594 564.511719 C 564.445312 564.6875 564.359375 564.882812 564.300781 565.117188 C 564.292969 565.191406 564.292969 565.265625 564.292969 565.335938 C 564.101562 565.339844 564.292969 565.265625 564.292969 565.335938 Z M 564.292969 565.335938 " fill-opacity="1" fill-rule="nonzero"/><g clip-path="url(#b34d8a8ea8)"><g clip-path="url(#f9c9c56f5a)"><path fill="#010000" d="M 591.40625 667.417969 L 591.40625 701.996094 L 631.753906 701.996094 L 631.753906 667.417969 Z M 591.40625 667.417969 " fill-opacity="1" fill-rule="nonzero"/></g></g><g clip-path="url(#7a71554180)"><path fill="#010000" d="M 654.34375 477.613281 C 647.613281 477.714844 642.167969 474.84375 639.496094 472.902344 C 637.484375 471.570312 635.476562 469.898438 633.527344 467.929688 C 631.453125 465.863281 629.664062 463.664062 628.207031 461.386719 L 628.042969 461.128906 L 627.785156 461.292969 C 627.289062 461.605469 626.761719 461.898438 626.214844 462.175781 C 625.300781 462.632812 624.460938 462.996094 623.683594 463.269531 C 623.101562 463.484375 622.546875 463.65625 622.03125 463.792969 C 621.925781 463.816406 621.824219 463.828125 621.722656 463.835938 C 621.167969 463.949219 620.65625 464.007812 620.199219 464.007812 C 618.640625 463.894531 617.34375 463.71875 616.367188 463.488281 C 615.101562 463.429688 613.585938 463.042969 611.925781 462.355469 L 611.328125 462.34375 L 610.945312 462.261719 C 609.667969 462.128906 608.5625 461.671875 607.570312 460.867188 C 606.480469 459.832031 605.921875 458.539062 605.921875 457.027344 L 605.660156 454.847656 C 605.507812 453.550781 605.492188 452.273438 605.613281 451.050781 C 606.046875 450.625 606.269531 450.226562 606.351562 449.789062 C 606.699219 448.808594 606.648438 447.820312 606.179688 446.820312 C 605.882812 445.980469 605.351562 445.28125 604.613281 444.773438 L 604.269531 444.535156 L 604.148438 444.933594 C 603.894531 445.761719 603.464844 446.972656 602.871094 448.566406 C 602.804688 448.914062 602.761719 449.25 602.738281 449.566406 L 602.6875 449.765625 L 602.660156 449.726562 C 602.304688 448.90625 602.097656 447.847656 602.078125 446.648438 L 602.066406 446.078125 L 602.085938 445.949219 C 602.144531 445.484375 602.230469 445.019531 602.347656 444.554688 L 602.609375 442.898438 C 603.164062 439.535156 603.144531 439.265625 603.136719 439.179688 C 603.246094 437.046875 603.363281 435.597656 603.476562 434.78125 C 603.601562 433.496094 603.890625 432.445312 604.347656 431.644531 L 604.539062 431.1875 L 604.074219 431.15625 L 603.300781 431.207031 C 602.796875 431.777344 602.457031 432.269531 602.089844 432.804688 L 601.210938 434.089844 C 600.515625 435.132812 599.992188 436.003906 599.644531 436.707031 L 599.644531 436.703125 C 599.566406 436.410156 599.554688 435.617188 599.554688 435.046875 C 599.785156 433.332031 600.167969 431.703125 600.6875 430.25 C 601.210938 428.683594 602.03125 427.1875 603.128906 425.800781 L 603.359375 425.476562 C 604.414062 424.1875 605.71875 423.117188 607.222656 422.3125 C 608.953125 421.441406 610.710938 420.941406 612.445312 420.828125 C 612.445312 420.828125 612.449219 420.828125 612.453125 420.828125 C 613.34375 420.828125 614.175781 421 615.292969 421.398438 C 617.34375 420.660156 619.128906 420.289062 620.808594 420.289062 C 621.3125 420.289062 621.804688 420.320312 622.289062 420.386719 C 623.859375 420.691406 625.417969 421.339844 626.898438 422.3125 C 628.066406 423.011719 629.289062 423.921875 630.648438 425.101562 L 631.429688 425.882812 L 631.609375 425.820312 C 632.832031 425.402344 634.160156 425.1875 635.5625 425.1875 C 636.460938 425.1875 637.417969 425.273438 638.402344 425.449219 C 642.503906 426.203125 646.078125 428.167969 649.023438 431.292969 C 649.539062 431.804688 650.023438 432.351562 650.480469 432.921875 C 652.0625 434.972656 653.089844 437.230469 653.550781 439.664062 C 653.550781 439.664062 653.898438 441.964844 653.898438 442.71875 C 653.898438 444.6875 653.460938 446.976562 652.59375 449.523438 C 651.839844 452.140625 651.460938 453.984375 651.460938 455.019531 C 651.46875 455.125 651.566406 455.707031 652.679688 460.953125 C 653.179688 461.949219 653.808594 463.144531 654.335938 463.832031 C 654.980469 464.652344 655.691406 465.28125 656.511719 465.75 C 656.722656 465.878906 656.960938 465.996094 657.21875 466.097656 L 657.214844 466.117188 L 657.472656 466.261719 C 658.390625 466.511719 659.25 466.628906 660.175781 466.628906 C 664.21875 466.628906 666.441406 464.429688 666.972656 459.910156 C 667.207031 457.367188 667.433594 455.859375 667.667969 455.285156 C 668.195312 453.875 669.25 453.191406 670.890625 453.191406 C 672.765625 453.191406 673.847656 454.074219 674.199219 455.894531 L 674.199219 459.730469 C 674.199219 460.4375 674.058594 461.4375 673.765625 462.78125 C 673.300781 465.046875 672.480469 467.097656 671.324219 468.890625 C 667.917969 474.679688 662.207031 477.613281 654.34375 477.613281 Z M 654.34375 477.613281 " fill-opacity="1" fill-rule="nonzero"/></g><g mask="url(#ad7d690e82)"><g transform="matrix(1, 0, 0, 1, 591, 671)"><g clip-path="url(#ddc4c36f3a)"><g clip-path="url(#2bbd617c16)"><g clip-path="url(#89e1166965)"><path fill="#f9b57c" d="M 0.359375 0.636719 L 0.359375 30.996094 L 36.542969 30.996094 L 36.542969 0.636719 Z M 0.359375 0.636719 " fill-opacity="1" fill-rule="nonzero"/></g></g></g></g></g><g mask="url(#0c4127c4c2)"><g transform="matrix(1, 0, 0, 1, 621, 667)"><g clip-path="url(#10af70d842)"><g clip-path="url(#e14ec0ac69)"><g clip-path="url(#ddd0725ebf)"><path fill="#f9b57c" d="M 0.855469 0.417969 L 0.855469 18.25 L 10.753906 18.25 L 10.753906 0.417969 Z M 0.855469 0.417969 " fill-opacity="1" fill-rule="nonzero"/></g></g></g></g></g><g mask="url(#1962c1c606)"><g transform="matrix(1, 0, 0, 1, 622, 685)"><g clip-path="url(#a790a2748b)"><g clip-path="url(#8d00b1c3e1)"><g clip-path="url(#02e9340f13)"><path fill="#f9b57c" d="M 0.8125 0.378906 L 0.8125 15.167969 L 4.992188 15.167969 L 4.992188 0.378906 Z M 0.8125 0.378906 " fill-opacity="1" fill-rule="nonzero"/></g></g></g></g></g><g clip-path="url(#c563ffdb91)"><g mask="url(#b7a45218cd)"><g transform="matrix(1, 0, 0, 1, 601, 420)"><g clip-path="url(#bfb4c11370)"><g clip-path="url(#76e42e05f5)"><g clip-path="url(#d7851bb7f6)"><path fill="#010000" d="M 1.066406 10.832031 L 1.066406 26.964844 L 21.378906 26.964844 L 21.378906 10.832031 Z M 1.066406 10.832031 " fill-opacity="1" fill-rule="nonzero"/></g></g><g clip-path="url(#3fc9e5b18e)"><g clip-path="url(#081a023dbe)"><path fill="#010000" d="M 14.117188 0.289062 L 14.117188 7.605469 L 27.292969 7.605469 L 27.292969 0.289062 Z M 14.117188 0.289062 " fill-opacity="1" fill-rule="nonzero"/></g></g><g clip-path="url(#b465ca180e)"><g clip-path="url(#5df97d5371)"><path fill="#010000" d="M 4.675781 5.1875 L 4.675781 57.714844 L 73.28125 57.714844 L 73.28125 5.1875 Z M 4.675781 5.1875 " fill-opacity="1" fill-rule="nonzero"/></g></g></g></g></g></g><g mask="url(#d13f0ca478)"><g transform="matrix(1, 0, 0, 1, 617, 689)"><g clip-path="url(#f7717ecafb)"><g clip-path="url(#6ce3987fe0)"><g clip-path="url(#1b9824cab0)"><path fill="#feffff" d="M 0.371094 0.480469 L 0.371094 0.914062 L 1.632812 0.914062 L 1.632812 0.480469 Z M 0.371094 0.480469 " fill-opacity="1" fill-rule="nonzero"/></g></g></g></g></g><g mask="url(#7f688f876c)"><g transform="matrix(1, 0, 0, 1, 634, 428)"><g clip-path="url(#555592a865)"><g clip-path="url(#53a919be45)"><g clip-path="url(#39566932e4)"><path fill="#feffff" d="M 0.820312 0.160156 L 0.820312 38.449219 L 23.46875 38.449219 L 23.46875 0.160156 Z M 0.820312 0.160156 " fill-opacity="1" fill-rule="nonzero"/></g></g></g></g></g><g mask="url(#5c931d37ff)"><g transform="matrix(1, 0, 0, 1, 599, 420)"><g clip-path="url(#766dea5ff0)"><g clip-path="url(#f1955836e6)"><g clip-path="url(#7c548c3aba)"><path fill="#feffff" d="M 0.554688 0.394531 L 0.554688 37.027344 L 32.433594 37.027344 L 32.433594 0.394531 Z M 0.554688 0.394531 " fill-opacity="1" fill-rule="nonzero"/></g></g></g></g></g><g mask="url(#ed98c96895)"><g transform="matrix(1, 0, 0, 1, 611, 444)"><g clip-path="url(#02a90c79f7)"><g clip-path="url(#acf7e2afad)"><g clip-path="url(#bd29ba0f31)"><path fill="#feffff" d="M 0.839844 1.339844 L 0.839844 20.007812 L 17.042969 20.007812 L 17.042969 1.339844 Z M 0.839844 1.339844 " fill-opacity="1" fill-rule="nonzero"/></g></g></g></g></g><g mask="url(#b5a875b0f5)"><g transform="matrix(1, 0, 0, 1, 566, 400)"><g clip-path="url(#d05e257b7a)"><g clip-path="url(#8e8f1fea26)"><g clip-path="url(#7a2e571766)"><path fill="#010000" d="M 0.558594 0.496094 L 0.558594 49.90625 L 38.617188 49.90625 L 38.617188 0.496094 Z M 0.558594 0.496094 " fill-opacity="1" fill-rule="nonzero"/></g></g></g></g></g><g mask="url(#b864c720f7)"><g transform="matrix(1, 0, 0, 1, 600, 462)"><g clip-path="url(#4b37b390c1)"><g clip-path="url(#f8bfe7bb74)"><g clip-path="url(#f43baf7cec)"><path fill="#010000" d="M 0.253906 1.265625 L 0.253906 15.355469 L 27.835938 15.355469 L 27.835938 1.265625 Z M 0.253906 1.265625 " fill-opacity="1" fill-rule="nonzero"/></g></g></g></g></g><g mask="url(#c153670ef0)"><g transform="matrix(1, 0, 0, 1, 583, 482)"><g clip-path="url(#e021d08f98)"><g clip-path="url(#cf4b04502c)"><g clip-path="url(#af62150c98)"><path fill="#010000" d="M 0.886719 0.160156 L 0.886719 57.683594 L 32.238281 57.683594 L 32.238281 0.160156 Z M 0.886719 0.160156 " fill-opacity="1" fill-rule="nonzero"/></g></g></g></g></g><g mask="url(#c70a6275d5)"><g transform="matrix(1, 0, 0, 1, 566, 404)"><g clip-path="url(#9f3d745ebd)"><g clip-path="url(#33c21a49b2)"><g clip-path="url(#5fe43e5909)"><path fill="#010000" d="M 0.558594 0.773438 L 0.558594 46.09375 L 33.953125 46.09375 L 33.953125 0.773438 Z M 0.558594 0.773438 " fill-opacity="1" fill-rule="nonzero"/></g></g></g></g></g><g mask="url(#9fcbee53aa)"><g transform="matrix(1, 0, 0, 1, 568, 533)"><g clip-path="url(#b5320e7701)"><g clip-path="url(#dd6a7efaa9)"><g clip-path="url(#57b16baad1)"><path fill="#010000" d="M 0.671875 0.234375 L 0.671875 30.957031 L 30.949219 30.957031 L 30.949219 0.234375 Z M 0.671875 0.234375 " fill-opacity="1" fill-rule="nonzero"/></g></g></g></g></g><g mask="url(#7ed3e39687)"><g transform="matrix(1, 0, 0, 1, 604, 450)"><g clip-path="url(#0dbe281bb2)"><g clip-path="url(#bb87c3a3dd)"><g clip-path="url(#65273fe7ec)"><path fill="#010000" d="M 0.875 1.054688 L 0.875 18.953125 L 17.726562 18.953125 L 17.726562 1.054688 Z M 0.875 1.054688 " fill-opacity="1" fill-rule="nonzero"/></g></g></g></g></g><g mask="url(#36812ef175)"><g transform="matrix(1, 0, 0, 1, 616, 620)"><g clip-path="url(#37075c2e5f)"><g clip-path="url(#49f3f14506)"><g clip-path="url(#83a174edfd)"><path fill="#010000" d="M 0.5 1.210938 L 0.5 29.613281 L 15.953125 29.613281 L 15.953125 1.210938 Z M 0.5 1.210938 " fill-opacity="1" fill-rule="nonzero"/></g></g></g></g></g><g mask="url(#9d0e50d4fc)"><g transform="matrix(1, 0, 0, 1, 555, 384)"><g clip-path="url(#a6e98dcb5d)"><g clip-path="url(#494afdf2f6)"><g clip-path="url(#8cae9975ab)"><path fill="#010000" d="M 0.410156 1.054688 L 0.410156 14.878906 L 7.304688 14.878906 L 7.304688 1.054688 Z M 0.410156 1.054688 " fill-opacity="1" fill-rule="nonzero"/></g></g></g></g></g><g mask="url(#9c74337bfd)"><g transform="matrix(1, 0, 0, 1, 561, 395)"><g clip-path="url(#caca83f592)"><g clip-path="url(#f06359bb28)"><g clip-path="url(#3197fbdfbc)"><path fill="#010000" d="M 0.417969 0.4375 L 0.417969 11.777344 L 16.527344 11.777344 L 16.527344 0.4375 Z M 0.417969 0.4375 " fill-opacity="1" fill-rule="nonzero"/></g></g></g></g></g><g mask="url(#5d0773fac6)"><g transform="matrix(1, 0, 0, 1, 617, 623)"><g clip-path="url(#fff6349287)"><g clip-path="url(#4caa6d1c69)"><g clip-path="url(#56623558e5)"><path fill="#010000" d="M 0.578125 0.570312 L 0.578125 52.476562 L 15.878906 52.476562 L 15.878906 0.570312 Z M 0.578125 0.570312 " fill-opacity="1" fill-rule="nonzero"/></g></g></g></g></g><g mask="url(#9615e42445)"><g transform="matrix(1, 0, 0, 1, 598, 622)"><g clip-path="url(#747f878b6b)"><g clip-path="url(#7e776ec284)"><g clip-path="url(#43cc5796b8)"><path fill="#010000" d="M 1.125 1.179688 L 1.125 28 L 19.414062 28 L 19.414062 1.179688 Z M 1.125 1.179688 " fill-opacity="1" fill-rule="nonzero"/></g></g></g></g></g><g mask="url(#582a9e66d9)"><g transform="matrix(1, 0, 0, 1, 600, 431)"><g clip-path="url(#a67fdc766c)"><g clip-path="url(#06827315de)"><g clip-path="url(#3503e0b5d8)"><path fill="#010000" d="M 0.957031 0.25 L 0.957031 13.238281 L 4.523438 13.238281 L 4.523438 0.25 Z M 0.957031 0.25 " fill-opacity="1" fill-rule="nonzero"/></g></g></g></g></g><g mask="url(#1beb4ff543)"><g transform="matrix(1, 0, 0, 1, 548, 568)"><g clip-path="url(#46db229fd8)"><g clip-path="url(#4c9f2ab783)"><g clip-path="url(#3aa4f05e45)"><path fill="#010000" d="M 0.890625 0.742188 L 0.890625 4.921875 L 4.140625 4.921875 L 4.140625 0.742188 Z M 0.890625 0.742188 " fill-opacity="1" fill-rule="nonzero"/></g></g></g></g></g><g mask="url(#a911d479a7)"><g transform="matrix(1, 0, 0, 1, 601, 442)"><g clip-path="url(#7d0f2bb5a3)"><g clip-path="url(#c81266d001)"><g clip-path="url(#354d63c603)"><path fill="#010000" d="M 0.5625 0.460938 L 0.5625 2.140625 L 1.609375 2.140625 L 1.609375 0.460938 Z M 0.5625 0.460938 " fill-opacity="1" fill-rule="nonzero"/></g></g></g></g></g><g mask="url(#b687bc4246)"><g transform="matrix(1, 0, 0, 1, 611, 525)"><g clip-path="url(#5f549161a9)"><g clip-path="url(#a28bea17c3)"><g clip-path="url(#c2d44598a8)"><path fill="#010000" d="M 0.621094 0.207031 L 0.621094 17.4375 L 21.640625 17.4375 L 21.640625 0.207031 Z M 0.621094 0.207031 " fill-opacity="1" fill-rule="nonzero"/></g></g></g></g></g><g mask="url(#da7764fc63)"><g transform="matrix(1, 0, 0, 1, 583, 529)"><g clip-path="url(#cca1ab798e)"><g clip-path="url(#760df2a72d)"><g clip-path="url(#9b7f43d963)"><path fill="#010000" d="M 0.796875 0.699219 L 0.796875 94.398438 L 56.015625 94.398438 L 56.015625 0.699219 Z M 0.796875 0.699219 " fill-opacity="1" fill-rule="nonzero"/></g></g></g></g></g><g mask="url(#cc03d282de)"><g transform="matrix(1, 0, 0, 1, 630, 524)"><g clip-path="url(#7af2ee91bf)"><g clip-path="url(#f927d32059)"><g clip-path="url(#8f1515b818)"><path fill="#010000" d="M 0.910156 0.554688 L 0.910156 9.757812 L 5.441406 9.757812 L 5.441406 0.554688 Z M 0.910156 0.554688 " fill-opacity="1" fill-rule="nonzero"/></g></g></g></g></g></svg>