<svg xmlns="http://www.w3.org/2000/svg" xmlns:xlink="http://www.w3.org/1999/xlink" width="1080" zoomAndPan="magnify" viewBox="0 0 810 809.999993" height="1080" preserveAspectRatio="xMidYMid meet" version="1.0"><defs><clipPath id="03668f7918"><path d="M 148.148438 177.6875 L 656.648438 177.6875 L 656.648438 260 L 148.148438 260 Z M 148.148438 177.6875 " clip-rule="nonzero"/></clipPath><clipPath id="4279fe0cca"><path d="M 148.148438 300 L 656.648438 300 L 656.648438 382 L 148.148438 382 Z M 148.148438 300 " clip-rule="nonzero"/></clipPath><clipPath id="2cbde74251"><path d="M 148.148438 423 L 656.648438 423 L 656.648438 505 L 148.148438 505 Z M 148.148438 423 " clip-rule="nonzero"/></clipPath><clipPath id="9e7122a8f8"><path d="M 148.148438 546 L 656.648438 546 L 656.648438 627.6875 L 148.148438 627.6875 Z M 148.148438 546 " clip-rule="nonzero"/></clipPath></defs><g clip-path="url(#03668f7918)"><path fill="#800ff0" d="M 243.617188 177.691406 C 221.058594 177.691406 202.894531 195.855469 202.894531 218.414062 C 202.894531 240.976562 221.058594 259.136719 243.617188 259.136719 L 615.933594 259.136719 C 638.492188 259.136719 656.65625 240.976562 656.65625 218.414062 C 656.65625 195.855469 638.492188 177.691406 615.933594 177.691406 Z M 163.476562 204.085938 C 162.46875 204.085938 161.472656 204.1875 160.484375 204.382812 C 159.5 204.578125 158.539062 204.867188 157.613281 205.253906 C 156.683594 205.640625 155.796875 206.109375 154.960938 206.671875 C 154.125 207.230469 153.351562 207.863281 152.640625 208.574219 C 151.929688 209.289062 151.292969 210.0625 150.734375 210.898438 C 150.175781 211.734375 149.703125 212.617188 149.316406 213.546875 C 148.933594 214.476562 148.640625 215.4375 148.445312 216.421875 C 148.25 217.410156 148.152344 218.40625 148.152344 219.410156 C 148.152344 220.417969 148.25 221.414062 148.445312 222.402344 C 148.640625 223.386719 148.933594 224.347656 149.316406 225.277344 C 149.703125 226.207031 150.175781 227.089844 150.734375 227.925781 C 151.292969 228.761719 151.929688 229.535156 152.640625 230.246094 C 153.351562 230.957031 154.125 231.59375 154.960938 232.152344 C 155.800781 232.710938 156.683594 233.183594 157.613281 233.570312 C 158.542969 233.953125 159.5 234.246094 160.484375 234.441406 C 161.472656 234.636719 162.46875 234.734375 163.476562 234.734375 C 164.480469 234.734375 165.480469 234.636719 166.464844 234.441406 C 167.453125 234.246094 168.410156 233.953125 169.339844 233.570312 C 170.269531 233.183594 171.152344 232.710938 171.988281 232.152344 C 172.828125 231.59375 173.601562 230.960938 174.3125 230.246094 C 175.023438 229.535156 175.660156 228.761719 176.21875 227.925781 C 176.777344 227.089844 177.25 226.207031 177.632812 225.277344 C 178.019531 224.347656 178.308594 223.386719 178.507812 222.402344 C 178.703125 221.414062 178.800781 220.417969 178.800781 219.410156 C 178.800781 218.40625 178.703125 217.410156 178.507812 216.421875 C 178.3125 215.433594 178.019531 214.476562 177.636719 213.546875 C 177.25 212.617188 176.777344 211.734375 176.21875 210.898438 C 175.660156 210.0625 175.023438 209.289062 174.3125 208.574219 C 173.601562 207.863281 172.828125 207.230469 171.992188 206.671875 C 171.152344 206.109375 170.269531 205.640625 169.339844 205.253906 C 168.410156 204.867188 167.453125 204.578125 166.464844 204.382812 C 165.480469 204.1875 164.480469 204.085938 163.476562 204.085938 Z M 163.476562 204.085938 " fill-opacity="1" fill-rule="nonzero"/></g><g clip-path="url(#4279fe0cca)"><path fill="#9b3cf8" d="M 243.617188 300.539062 C 221.058594 300.539062 202.894531 318.703125 202.894531 341.261719 C 202.894531 363.820312 221.058594 381.984375 243.617188 381.984375 L 615.933594 381.984375 C 638.492188 381.984375 656.65625 363.820312 656.65625 341.261719 C 656.65625 318.703125 638.492188 300.539062 615.933594 300.539062 Z M 163.476562 327.191406 C 162.46875 327.191406 161.472656 327.289062 160.484375 327.488281 C 159.5 327.683594 158.542969 327.972656 157.613281 328.359375 C 156.683594 328.746094 155.800781 329.214844 154.960938 329.773438 C 154.125 330.335938 153.351562 330.96875 152.640625 331.679688 C 151.929688 332.390625 151.292969 333.167969 150.734375 334.003906 C 150.175781 334.839844 149.703125 335.722656 149.316406 336.652344 C 148.933594 337.582031 148.640625 338.539062 148.445312 339.527344 C 148.25 340.515625 148.152344 341.511719 148.152344 342.515625 C 148.152344 343.523438 148.25 344.519531 148.445312 345.507812 C 148.640625 346.492188 148.933594 347.449219 149.316406 348.378906 C 149.703125 349.308594 150.175781 350.195312 150.734375 351.03125 C 151.292969 351.867188 151.929688 352.640625 152.640625 353.351562 C 153.351562 354.0625 154.125 354.699219 154.960938 355.257812 C 155.796875 355.816406 156.683594 356.289062 157.613281 356.675781 C 158.539062 357.058594 159.5 357.351562 160.484375 357.546875 C 161.472656 357.742188 162.46875 357.839844 163.476562 357.839844 C 164.480469 357.839844 165.480469 357.742188 166.464844 357.546875 C 167.453125 357.351562 168.410156 357.058594 169.339844 356.675781 C 170.269531 356.289062 171.152344 355.816406 171.992188 355.257812 C 172.828125 354.699219 173.601562 354.0625 174.3125 353.351562 C 175.023438 352.640625 175.660156 351.867188 176.21875 351.03125 C 176.777344 350.195312 177.25 349.308594 177.632812 348.378906 C 178.019531 347.449219 178.3125 346.492188 178.507812 345.507812 C 178.703125 344.519531 178.800781 343.523438 178.800781 342.515625 C 178.800781 341.511719 178.703125 340.511719 178.507812 339.527344 C 178.308594 338.539062 178.019531 337.582031 177.632812 336.652344 C 177.25 335.722656 176.777344 334.839844 176.21875 334.003906 C 175.660156 333.167969 175.023438 332.390625 174.3125 331.679688 C 173.601562 330.96875 172.828125 330.335938 171.988281 329.773438 C 171.152344 329.214844 170.269531 328.742188 169.339844 328.359375 C 168.410156 327.972656 167.453125 327.683594 166.464844 327.488281 C 165.480469 327.289062 164.480469 327.191406 163.476562 327.191406 Z M 163.476562 327.191406 " fill-opacity="1" fill-rule="nonzero"/></g><g clip-path="url(#2cbde74251)"><path fill="#b779f4" d="M 243.617188 423.386719 C 221.058594 423.386719 202.894531 441.546875 202.894531 464.105469 C 202.894531 486.667969 221.058594 504.828125 243.617188 504.828125 L 615.933594 504.828125 C 638.492188 504.828125 656.65625 486.667969 656.65625 464.109375 C 656.65625 441.546875 638.492188 423.386719 615.933594 423.386719 Z M 163.476562 446.414062 C 162.46875 446.414062 161.472656 446.511719 160.484375 446.710938 C 159.5 446.90625 158.539062 447.195312 157.613281 447.582031 C 156.683594 447.96875 155.796875 448.4375 154.960938 448.996094 C 154.125 449.558594 153.351562 450.191406 152.640625 450.902344 C 151.929688 451.617188 151.292969 452.390625 150.734375 453.226562 C 150.175781 454.0625 149.703125 454.945312 149.316406 455.875 C 148.933594 456.804688 148.640625 457.761719 148.445312 458.75 C 148.25 459.738281 148.152344 460.734375 148.152344 461.738281 C 148.152344 462.746094 148.25 463.742188 148.445312 464.730469 C 148.640625 465.714844 148.933594 466.675781 149.316406 467.605469 C 149.703125 468.535156 150.175781 469.417969 150.734375 470.253906 C 151.292969 471.089844 151.929688 471.863281 152.640625 472.574219 C 153.351562 473.289062 154.125 473.921875 154.960938 474.480469 C 155.796875 475.039062 156.683594 475.511719 157.609375 475.898438 C 158.539062 476.28125 159.5 476.574219 160.484375 476.769531 C 161.472656 476.964844 162.46875 477.0625 163.476562 477.0625 C 164.480469 477.0625 165.480469 476.964844 166.464844 476.769531 C 167.453125 476.574219 168.410156 476.28125 169.339844 475.898438 C 170.269531 475.511719 171.152344 475.039062 171.992188 474.480469 C 172.828125 473.921875 173.601562 473.289062 174.3125 472.574219 C 175.023438 471.863281 175.660156 471.089844 176.21875 470.253906 C 176.777344 469.417969 177.25 468.535156 177.632812 467.605469 C 178.019531 466.675781 178.308594 465.714844 178.507812 464.730469 C 178.703125 463.742188 178.800781 462.746094 178.800781 461.738281 C 178.800781 460.734375 178.703125 459.738281 178.507812 458.75 C 178.3125 457.761719 178.019531 456.804688 177.636719 455.875 C 177.25 454.945312 176.777344 454.0625 176.21875 453.226562 C 175.660156 452.390625 175.023438 451.613281 174.3125 450.902344 C 173.601562 450.191406 172.828125 449.558594 171.992188 448.996094 C 171.152344 448.4375 170.269531 447.964844 169.339844 447.582031 C 168.410156 447.195312 167.453125 446.90625 166.464844 446.710938 C 165.480469 446.511719 164.480469 446.414062 163.476562 446.414062 Z M 163.476562 446.414062 " fill-opacity="1" fill-rule="nonzero"/></g><g clip-path="url(#9e7122a8f8)"><path fill="#be8af1" d="M 243.492188 546.230469 C 220.933594 546.230469 202.769531 564.394531 202.769531 586.953125 C 202.769531 609.511719 220.933594 627.675781 243.492188 627.675781 L 615.804688 627.675781 C 638.367188 627.675781 656.53125 609.511719 656.53125 586.953125 C 656.53125 564.394531 638.367188 546.230469 615.804688 546.230469 Z M 163.476562 569.007812 C 162.46875 569.007812 161.472656 569.105469 160.484375 569.300781 C 159.5 569.5 158.539062 569.789062 157.613281 570.171875 C 156.683594 570.558594 155.796875 571.03125 154.960938 571.589844 C 154.125 572.148438 153.351562 572.785156 152.640625 573.496094 C 151.929688 574.207031 151.292969 574.980469 150.734375 575.816406 C 150.175781 576.65625 149.703125 577.539062 149.316406 578.46875 C 148.933594 579.398438 148.640625 580.355469 148.445312 581.34375 C 148.25 582.328125 148.152344 583.324219 148.152344 584.332031 C 148.152344 585.339844 148.25 586.335938 148.445312 587.320312 C 148.640625 588.308594 148.933594 589.265625 149.316406 590.195312 C 149.703125 591.125 150.175781 592.007812 150.734375 592.84375 C 151.292969 593.683594 151.929688 594.457031 152.640625 595.167969 C 153.351562 595.878906 154.125 596.515625 154.960938 597.074219 C 155.796875 597.632812 156.683594 598.105469 157.613281 598.488281 C 158.542969 598.875 159.5 599.164062 160.488281 599.363281 C 161.472656 599.558594 162.46875 599.65625 163.476562 599.65625 C 164.480469 599.65625 165.480469 599.558594 166.464844 599.363281 C 167.453125 599.164062 168.410156 598.875 169.339844 598.488281 C 170.269531 598.105469 171.152344 597.632812 171.988281 597.074219 C 172.828125 596.515625 173.601562 595.878906 174.3125 595.167969 C 175.023438 594.457031 175.660156 593.683594 176.21875 592.847656 C 176.777344 592.007812 177.25 591.125 177.632812 590.195312 C 178.019531 589.265625 178.308594 588.308594 178.507812 587.320312 C 178.703125 586.335938 178.800781 585.339844 178.800781 584.332031 C 178.800781 583.324219 178.703125 582.328125 178.507812 581.34375 C 178.3125 580.355469 178.019531 579.398438 177.636719 578.46875 C 177.25 577.539062 176.777344 576.65625 176.21875 575.816406 C 175.660156 574.980469 175.023438 574.207031 174.3125 573.496094 C 173.601562 572.785156 172.828125 572.148438 171.992188 571.589844 C 171.152344 571.03125 170.269531 570.558594 169.339844 570.171875 C 168.410156 569.789062 167.453125 569.496094 166.464844 569.300781 C 165.480469 569.105469 164.480469 569.007812 163.476562 569.007812 Z M 163.476562 569.007812 " fill-opacity="1" fill-rule="nonzero"/></g></svg>